<?xml version="1.0" encoding="UTF-8" standalone="no"?>
<!DOCTYPE svg PUBLIC "-//W3C//DTD SVG 1.1//EN" "http://www.w3.org/Graphics/SVG/1.1/DTD/svg11.dtd">
<svg width="100%" height="100%" viewBox="0 0 32 23" version="1.1" xmlns="http://www.w3.org/2000/svg" xmlns:xlink="http://www.w3.org/1999/xlink" xml:space="preserve" xmlns:serif="http://www.serif.com/" style="fill-rule:evenodd;clip-rule:evenodd;stroke-linejoin:round;stroke-miterlimit:2;">
    <path d="M5.715,2.48L7.749,0.763L27.702,0.997L28.397,1.889L28.464,20.606L27.251,22.165L5.017,21.998L3.761,21.233L3.72,4.286L5.715,2.48" style="fill:rgb(61,78,96);"/>
  <g transform="matrix(3.66666,-0.521815,0.521815,3.66666,-52.8563,-6.53117)">
        <g transform="matrix(0.0830125,0,0,0.0830125,8.27126,4.1691)">
            <path d="M144.763,79.744C144.463,79.744 144.163,79.744 143.963,79.644L74.163,69.744C70.863,69.244 68.563,66.244 69.063,62.944L76.6,10.3C76.7,9.8 77.2,9.4 77.7,9.5C78.2,9.6 78.6,10.1 78.5,10.6L70.963,63.244C70.663,65.444 72.163,67.444 74.363,67.744L144.163,77.644C146.363,77.944 148.363,76.444 148.663,74.244L157,15.3C157.3,13.1 155.8,11.1 153.6,10.8L91.7,2C91.2,1.9 90.8,1.4 90.9,0.9C91,0.3 91.5,-0.1 92,-0L154,8.8C157.3,9.3 159.6,12.3 159.1,15.6L150.763,74.544C150.263,77.544 147.663,79.744 144.763,79.744" style="fill:rgb(145,144,147);fill-rule:nonzero;"/>
        </g>
    <g transform="matrix(0.0830125,0,0,0.0830125,8.27126,4.1691)">
            <path d="M90.3,12.1L77.5,10.3L91.8,1L90.3,12.1Z" style="fill:rgb(56,70,86);fill-rule:nonzero;"/>
        </g>
    <g transform="matrix(0.0830125,0,0,0.0830125,8.27126,4.1691)">
            <path d="M90.3,13.1L90.2,13.1L77.5,11.3C77.1,11.2 76.8,10.9 76.7,10.5C76.6,10.1 76.8,9.7 77.1,9.4L91.4,0.1C91.7,-0.1 92.2,-0.1 92.5,0.1C92.8,0.3 93,0.7 93,1.1L91.4,12.2C91.4,12.5 91.2,12.7 91,12.9C90.7,13.1 90.5,13.1 90.3,13.1M80.3,9.7L89.4,11L90.5,3L80.3,9.7" style="fill:rgb(145,144,147);fill-rule:nonzero;"/>
        </g>
    </g>
  <g transform="matrix(0.269767,0,0,0.269767,0.190868,-21.6745)">
        <g transform="matrix(0.707107,0.707107,-0.707107,0.707107,77.8858,41.5149)">
            <path d="M66.2,71.9L21.9,71.9C21.3,71.9 20.9,71.5 20.9,70.9C20.9,70.3 21.3,69.9 21.9,69.9L66.2,69.9C66.8,69.9 67.2,70.3 67.2,70.9C67.2,71.5 66.7,71.9 66.2,71.9" style="fill:rgb(245,76,60);fill-rule:nonzero;"/>
        </g>
    <g transform="matrix(0.707107,-0.707107,0.707107,0.707107,-22.3819,103.811)">
            <path d="M66.2,71.9L21.9,71.9C21.3,71.9 20.9,71.5 20.9,70.9C20.9,70.3 21.3,69.9 21.9,69.9L66.2,69.9C66.8,69.9 67.2,70.3 67.2,70.9C67.2,71.5 66.7,71.9 66.2,71.9" style="fill:rgb(245,76,60);fill-rule:nonzero;"/>
        </g>
    </g>
</svg>
