<svg enable-background="new 0 0 328 657" viewBox="0 0 328 657" xmlns="http://www.w3.org/2000/svg" xmlns:xlink="http://www.w3.org/1999/xlink"><linearGradient id="a" gradientUnits="userSpaceOnUse" x1="14.3566" x2="187.0232" y1="-36.6529" y2="384.6804"><stop offset="0" stop-color="#262626"/><stop offset="1" stop-color="#111"/></linearGradient><linearGradient id="b" gradientUnits="userSpaceOnUse" x1="0" x2="328" y1="174.5" y2="174.5"><stop offset="0" stop-color="#353535"/><stop offset="1" stop-color="#262626"/></linearGradient><path d="m277.7.3h-227.4c-25.6 0-46.5 20.8-46.5 46.4v563.6c0 25.6 20.8 46.5 46.5 46.5h227.4c25.6 0 46.5-20.8 46.5-46.5v-563.6c0-25.6-20.9-46.4-46.5-46.4z" fill="url(#a)"/><path d="m326 171h-2v-42h2c1.1 0 2 .9 2 2v38c0 1.1-.9 2-2 2zm-326-41v38c0 1.1.9 2 2 2h2v-42h-2c-1.1 0-2 .9-2 2zm0 51v38c0 1.1.9 2 2 2h2v-42h-2c-1.1 0-2 .9-2 2z" fill="url(#b)"/><path d="m277.8 651h-227.6c-22.3 0-40.5-18.2-40.5-40.5v-564c0-22.3 18.2-40.5 40.5-40.5h227.6c22.3 0 40.5 18.2 40.5 40.5v564c0 22.3-18.2 40.5-40.5 40.5zm-227.6-642c-20.7 0-37.5 16.8-37.5 37.5v564c0 20.7 16.8 37.5 37.5 37.5h227.6c20.7 0 37.5-16.8 37.5-37.5v-564c0-20.7-16.8-37.5-37.5-37.5zm67.3 22c-3 0-5.5 2.5-5.5 5.5s2.5 5.5 5.5 5.5 5.5-2.5 5.5-5.5-2.5-5.5-5.5-5.5zm70.5 6c0-1.7-1.4-3-3-3h-41c-1.6 0-3 1.3-3 3 0 1.6 1.4 3 3 3h41c1.6 0 3-1.3 3-3zm-24 606c-12.7 0-23-10.3-23-23s10.3-23 23-23 23 10.3 23 23-10.3 23-23 23zm0-43c-11 0-20 9-20 20s9 20 20 20 20-9 20-20-9-20-20-20z" fill="#fff" opacity=".1"/></svg>