<svg enable-background="new 0 0 386.9 345.3" viewBox="0 0 386.9 345.3" xmlns="http://www.w3.org/2000/svg"><path d="m121.7 215.3 54.5 54.5 120-120c14.1 19.7 22.5 43.9 22.5 70 0 66.6-53.9 120.5-120.5 120.5s-120.5-54-120.5-120.5 54-120.5 120.5-120.5c25.6 0 49.4 8 68.9 21.6" fill="none" stroke="#6ed499" stroke-linecap="round" stroke-linejoin="round" stroke-miterlimit="10" stroke-width="10"/><path d="m110.5 74.3c-8.7-3.7-12.5-7-17.7-15 3.6-1.9 5.5-2.9 9.1-4.8 2.8 6.9 5.3 10 11.6 14.2-1.2 2.2-1.8 3.4-3 5.6z" fill="#7ddafb"/><path d="m336.8 103.3c-7.4 2.6-10.9 4.8-16.6 10.4-2.1-1.8-3.2-2.6-5.3-4.4 5.3-7.8 8.9-11.1 17.2-16 1.9 4 2.8 6 4.7 10z" fill="#f7931e"/><path d="m205.3 0c1.1 7.8 2.6 11.6 7 18.3-2.1 1.8-3.2 2.6-5.3 4.4-6.6-6.7-9.2-10.9-12.3-20 4.2-1.1 6.3-1.6 10.6-2.7z" fill="#f93556"/><path d="m289.3 62.7c-3.4 3.6-5.5 5-10.2 6.9.5 1.7.7 2.5 1.2 4.2 5.8-1.1 8.7-2.3 13.6-5.8-1.9-2.1-2.8-3.2-4.6-5.3z" fill="#7ddafb"/><path d="m151.4 22c-.6 4.1-1.3 6.1-3.6 9.5 1.1.9 1.7 1.4 2.8 2.3 3.4-3.5 4.8-5.7 6.4-10.4-2.3-.5-3.4-.8-5.6-1.4z" fill="#ffd600"/><circle cx="86" cy="107.7" fill="#ffd600" r="5.2"/><circle cx="237.6" cy="42" fill="#ffd600" r="3.7"/><circle cx="186.4" cy="72" fill="#f7931e" r="3.7"/><circle cx="107.4" cy="2.6" fill="#f93556" r="2.4"/><circle cx="178.5" cy="13.5" fill="#7ddafb" r="2.4"/><circle cx="291.7" cy="24.5" fill="#f93556" r="2.4"/><circle cx="381.1" cy="103.2" fill="#7ddafb" r="3.7"/><circle cx="348.3" cy="135.6" fill="#ffd600" r="6.6"/><path d="m28.9 119c-5.4 1.9-7.9 3.5-12 7.5-1.5-1.3-2.3-1.9-3.9-3.2 3.9-5.6 6.5-8 12.4-11.5 1.4 2.9 2.1 4.3 3.5 7.2z" fill="#f93556"/><g fill="#f7931e"><path d="m42.4 66c .1-3.3-.2-5-1.6-8.1 1-.6 1.5-.9 2.5-1.4 2.2 3.3 3 5.2 3.7 9.1-1.8.2-2.7.3-4.6.4z"/><circle cx="47.7" cy="152" r="3.3"/><path d="m20.3 230.5c8.8 1.1 13.5.6 22.1-2.2 1.3 2.9 1.9 4.3 3.2 7.1-9.3 5.2-14.7 6.8-25.5 7.5.1-4.9.2-7.4.2-12.4z"/></g><path d="m379.8 192.8c-6.8-5.8-10.9-7.9-19.6-10.3.5-3.1.7-4.6 1.2-7.7 10.7.8 16 2.4 25.5 7.7-2.8 4.1-4.2 6.2-7.1 10.3z" fill="#f93556"/><circle cx="4.2" cy="189.9" fill="#7ddafb" r="4.2"/></svg>