<svg xmlns="http://www.w3.org/2000/svg" width="0" height="0" display="none">
  <symbol id="logo" viewBox="0 0 652.2 135" >
    <title>AWRStudyr</title>
    <path d="m67.5 17.7c-27.5 0-49.8 22.3-49.8 49.8v.9l19 18.7 9.9-15.2 14.8 13.1 16.3-33.5 21.2 29.7 14-34.2c-7.9-17.3-25.2-29.3-45.4-29.3z"/><path d="m67.5 0c-37.2 0-67.5 30.3-67.5 67.5s30.3 67.5 67.5 67.5 67.5-30.3 67.5-67.5-30.3-67.5-67.5-67.5zm0 122.9c-30.6 0-55.4-24.8-55.4-55.4s24.8-55.4 55.4-55.4 55.4 24.8 55.4 55.4-24.8 55.4-55.4 55.4z"/><path d="m201.4 102.7-7.1-20.2h-28l-7.1 20.2h-9.2l26-70.5h8.7l26 70.5zm-21.3-59.7-11.3 32.1h22.9l-11.3-32.1z"/><path d="m251.4 46.8-16.3 55.9h-8.3l-19.2-70.5h9.2l14.1 57.5h.4l15.9-57.5h8.9l15.9 57.6h.4l14.1-57.5h9.2l-19.2 70.5h-8.3l-16.3-55.9h-.5z"/><path d="m313.5 74.9v27.9h-8.8v-70.5h26.4c6.8 0 12.2 1.9 16.3 5.7s6.1 8.9 6.1 15.3c0 4.9-1.3 9.2-3.8 12.7-2.5 3.6-6 6.1-10.4 7.5l16.3 29.2h-10.3l-15.1-27.9h-16.7zm0-34.8v27h16.8c4.5 0 8-1.2 10.5-3.5s3.7-5.7 3.7-10c0-4.2-1.3-7.5-3.9-9.9s-6.1-3.6-10.7-3.6z"/><path d="m361.1 82.9h12.2c.4 3.2 2.1 5.8 5 7.8s6.6 3 10.9 3c4.2 0 7.7-.9 10.4-2.8s4-4.3 4-7.2c0-2.5-1-4.6-2.9-6.2-2-1.6-5.1-2.9-9.6-3.9l-9.1-2.1c-6.5-1.5-11.3-3.8-14.4-7s-4.7-7.3-4.7-12.3c0-6.2 2.4-11.3 7.3-15.1 4.9-3.9 11.2-5.8 18.9-5.8s14 1.9 18.7 5.7 7.2 8.8 7.3 15.1h-12c-.3-3.3-1.7-5.9-4.2-7.7-2.5-1.9-5.8-2.8-9.9-2.8-4 0-7.2.9-9.6 2.7-2.5 1.8-3.7 4.2-3.7 7.1 0 2.3 1 4.2 2.9 5.7s5 2.7 9.4 3.8l8.1 1.9c7.1 1.6 12.3 4 15.5 7.1s4.8 7.3 4.8 12.5c0 6.7-2.5 12-7.5 15.9s-11.8 5.9-20.3 5.9c-8.1 0-14.7-1.9-19.6-5.6-5.1-4.1-7.7-9.2-7.9-15.7z"/><path d="m427.9 38.9h12.1v12.1h9.8v9.4h-9.8v26.9c0 2.1.5 3.7 1.5 4.7s2.6 1.5 4.7 1.5c1.4 0 2.6-.1 3.5-.2v9.3c-1.5.3-3.6.5-6.3.5-5.6 0-9.6-1.1-12-3.2s-3.6-5.7-3.6-10.8v-28.7h-7.4v-9.4h7.4v-12.1z"/><path d="m503.9 51v51.8h-11.7v-9h-.2c-2.9 6.6-8.1 9.9-15.8 9.9-5.6 0-10.1-1.7-13.4-5.2-3.3-3.4-5-8.1-5-14.1v-33.4h12.2v31c0 3.7.9 6.5 2.7 8.5s4.4 2.9 7.8 2.9c3.5 0 6.3-1.1 8.3-3.4 2.1-2.3 3.1-5.3 3.1-9.1v-29.9z"/><path d="m533.2 103.6c-6.5 0-11.8-2.4-15.6-7.2-3.9-4.8-5.8-11.3-5.8-19.5s1.9-14.7 5.8-19.5 9.1-7.2 15.6-7.2c3.6 0 6.9.9 9.7 2.6s4.9 4.1 6.3 7h .3v-27.5h12.2v70.5h-11.9v-8.8h-.2c-1.4 3-3.6 5.3-6.5 7.1-2.9 1.6-6.2 2.5-9.9 2.5zm3.7-43.5c-3.9 0-7 1.5-9.3 4.5s-3.4 7.1-3.4 12.2c0 5.2 1.1 9.3 3.4 12.3s5.4 4.5 9.3 4.5c3.8 0 6.9-1.5 9.2-4.5s3.5-7.1 3.5-12.2-1.2-9.1-3.5-12.2-5.4-4.6-9.2-4.6z"/><path d="m577.6 122c-2.6 0-4.2-.1-4.8-.2v-9.6c.6.1 1.7.2 3.5.2 2.5 0 4.5-.5 5.9-1.6 1.4-1 2.4-2.8 3.1-5.1 0 0 .1-.5.4-1.4.2-.9.3-1.4.3-1.5l-18.4-51.8h13.3l12.2 41.4h.2l12.2-41.4h12.8l-18.7 53.8c-2.2 6.4-4.9 10.9-8.2 13.4s-7.9 3.8-13.8 3.8z"/><path d="m624.1 102.7v-51.7h11.7v9h .2c.9-3.2 2.4-5.6 4.6-7.3s4.8-2.6 7.8-2.6c1.1 0 2.3.2 3.8.5v11c-1.2-.5-2.8-.7-4.9-.7-3.5 0-6.2 1-8.1 3.1-2 2.1-2.9 4.9-2.9 8.6v30.1z"/>
  </symbol>

  <symbol id="facebook" viewBox="0 0 56.693 56.693">
    <title>Facebook logo</title>
    <path fill="currentColor" d="M40.43,21.739h-7.645v-5.014c0-1.883,1.248-2.322,2.127-2.322c0.877,0,5.395,0,5.395,0V6.125l-7.43-0.029  c-8.248,0-10.125,6.174-10.125,10.125v5.518h-4.77v8.53h4.77c0,10.947,0,24.137,0,24.137h10.033c0,0,0-13.32,0-24.137h6.77  L40.43,21.739z"/>
  </symbol>

  <symbol id="twitter" viewBox="0 0 56.693 56.693">
    <title>Twitter logo</title>
    <path fill="currentColor" d="M52.837,15.065c-1.811,0.805-3.76,1.348-5.805,1.591c2.088-1.25,3.689-3.23,4.444-5.592c-1.953,1.159-4.115,2-6.418,2.454  c-1.843-1.964-4.47-3.192-7.377-3.192c-5.581,0-10.106,4.525-10.106,10.107c0,0.791,0.089,1.562,0.262,2.303  c-8.4-0.422-15.848-4.445-20.833-10.56c-0.87,1.492-1.368,3.228-1.368,5.082c0,3.506,1.784,6.6,4.496,8.412  c-1.656-0.053-3.215-0.508-4.578-1.265c-0.001,0.042-0.001,0.085-0.001,0.128c0,4.896,3.484,8.98,8.108,9.91  c-0.848,0.23-1.741,0.354-2.663,0.354c-0.652,0-1.285-0.063-1.902-0.182c1.287,4.015,5.019,6.938,9.441,7.019  c-3.459,2.711-7.816,4.327-12.552,4.327c-0.815,0-1.62-0.048-2.411-0.142c4.474,2.869,9.786,4.541,15.493,4.541  c18.591,0,28.756-15.4,28.756-28.756c0-0.438-0.009-0.875-0.028-1.309C49.769,18.873,51.483,17.092,52.837,15.065z"/>
  </symbol>

  <symbol id="chrome" viewBox="0 0 32 32">
    <title>Chrome logo</title>
    <path d="m16 10c3.3 0 6 2.7 6 6s-2.7 6-6 6-6-2.7-6-6 2.7-6 6-6zm0 14c-4 0-7.4-3-7.9-6.9l-5.5-9.6-.7.9c-.1.3-.3.6-.4.8l-.3.7c-.1.2-.2.5-.3.7-.1.3-.2.5-.3.8l-.2.6c-.1.3-.1.6-.2.9l-.1.6c0 .3-.1.6-.1.9l0 .8v.8s0 .5 0 .8l.1.7c0 .3.1.6.1.9l.1.6c.1.3.1.6.2.9l.2.6c.1.3.2.6.3.8s.2.5.3.7.2.5.3.7c.1.3.3.6.4.9l.1.4.1.1.6.9.3.5c.2.3.4.5.6.8l.4.5c.2.2.4.4.6.6s.4.4.6.6l.5.4c.2.2.5.4.8.6l.4.2c.3.2.6.4.9.6l.1.1.4.2c.3.2.6.3.9.4h.1l.4.2c1.1.5 2.2.8 3.4 1l4.6-7.9c-.7.1-1.2.2-1.8.2zm15.9-9.1v-.3c-.1-1.3-.7-3.3-1.1-4.6h-9.4c1.6 1.5 2.6 3.6 2.6 6 0 2.5-1.2 4.8-3 6.3l-5.7 9.7c2 0 4.6-.4 6.6-1.1h.1.1c.7-.3 1.3-.6 1.9-.9s1.1-.7 1.6-1.1c.5-.4.9-.8 1.4-1.2l.1-.1.2-.2c1-1 1.8-2 2.5-3.2l.1-.1.1-.3c.2-.4.4-.8.6-1.2l.2-.6c.2-.4.3-.8.4-1.2l.2-.5c.2-.6.3-1.1.4-1.7v-.3c.1-.5.1-1 .1-1.5v-.4c.1-.5.1-1 0-1.5zm-2.1-6.9c-.3-.6-.7-1.1-1.1-1.6l-.1-.2c-.4-.5-.7-.9-1.1-1.3l-.3-.3c-.4-.4-.9-.8-1.4-1.2l-.1-.1c-.5-.4-1.1-.8-1.6-1.1l-.1-.1-.4-.2c-.3-.1-.5-.3-.8-.4-.2-.1-.5-.2-.7-.3l-.7-.2c-.3-.1-.6-.2-.9-.3l-.5-.2c-.3-.1-.7-.2-1-.2l-.5-.1c-.3-.1-.7-.1-1-.1l-.5-.1c-.3 0-.6 0-.8 0h-.7-.5c-1.2.1-2.4.3-3.6.6l-.2.1c-.3.1-.6.2-.9.3l-.6.3c-.3.1-.5.2-.8.3-.2.2-.4.3-.7.4l-.2.1-.4.3c-.2.1-.5.3-.7.4-.2.2-.4.3-.6.5l-.6.4c-.2.2-.4.4-.6.6l-.4.4c-.3.2-.5.5-.7.7l-.2.2 4.6 7.9c1-3.2 4-5.5 7.6-5.5z" fill="currentColor"/>
  </symbol>

  <symbol id="technologies" viewBox="0 0 16 16">
    <title>Technologies</title>
    <path d="m4.5 12-4-4 4-4m7 8 4-4-4-4m-1.7-1.5-3.5 11" fill="none" stroke-miterlimit="10"/>
  </symbol>

  <symbol id="pagespeed" viewBox="0 0 16 16">
    <title>PageSpeed</title>
    <path d="m3.5 12.5h-3v-1.5c0-4.1 3.4-7.5 7.5-7.5s7.5 3.4 7.5 7.5v1.5h-3m-11.4-4.3 1.9.7m5-5.4v2m5.1 3.3 1.9-.7m-7 4.9 3-6.3" fill="none" stroke-miterlimit="10"/>
  </symbol>

  <symbol id="html5" viewBox="0 0 16 16">
    <title>HTML5</title>
    <path d="m1 .5h14l-1 12.3-6 2.8-6-2.8zm3.8 8.5v1.2l3.1 1.2 3.5-1.2v-3.3l-6.6.1v-3.5h7" fill="none" stroke-miterlimit="10"/>
  </symbol>

  <symbol id="mobile" viewBox="0 0 16 16">
    <title>Small mobile device</title>
    <path d="m7 13.5h2m2.5 2h-7c-.6 0-1-.4-1-1v-13c0-.6.4-1 1-1h7c .6 0 1 .4 1 1v13c0 .6-.4 1-1 1zm-6-14.5v.2c0 .6.4 1 1 1h3c .6 0 1-.4 1-1v-.2" fill="none" stroke-linecap="round" stroke-miterlimit="10"/>
  </symbol>

  <symbol id="mixed" viewBox="0 0 16 16">
    <title>Mixed content</title>
    <path d="m12.3 4h-3.2c-1 0-1.8.9-1.8 2v1c0 1.1-.8 1-1.8 1h-5.5m12.6-1.5 2.4-2.5-2.4-2.5m-.3 10.5h-3.2c-1 0-1.8-.9-1.8-2v-1c0-1.1-.8-1-1.8-1h-5.5m12.6 6.5 2.4-2.5-2.4-2.5" fill="none" stroke-miterlimit="10"/>
  </symbol>

  <symbol id="accessibility" viewBox="0 0 16 16">
    <title>Accessibility</title>
    <path d="m9.5 15.5h-3c-.6 0-1-.4-1-1v-6h-4v-2h13v2h-4v6c0 .6-.4 1-1 1zm-1.5-14.7c-1 0-1.8.8-1.8 1.8s.8 1.7 1.8 1.7 1.8-.8 1.8-1.8-.8-1.7-1.8-1.7zm0 10.7v4" fill="none" stroke-miterlimit="10"/>
  </symbol>

  <symbol id="heart" viewBox="-0.7 -11.5 141.7 141.7">
    <title>Heart</title>
    <path d="M140.314,37.654C140.314,16.858,123.402,0,102.537,0c-13.744,0-25.77,7.317-32.379,18.255C63.549,7.317,51.521,0,37.777,0   C16.912,0,0,16.858,0,37.654c0,10.821,4.588,20.57,11.922,27.438h-0.01l54.084,51.584c0.992,1.188,2.48,1.945,4.148,1.945   c1.545,0,2.936-0.653,3.92-1.696l54.346-51.833h-0.016C135.729,58.225,140.314,48.476,140.314,37.654" />
  </symbol>
</svg>
