<svg xmlns="http://www.w3.org/2000/svg" width="0" height="0" display="none">
  <symbol id="logo" viewBox="0 0 930.76 179.6">
    <title>Wattspeed logo</title>
    <path d="M148 0H64L0 95h125.5L158 47h-41.663L148 0z"/><path opacity=".8" d="M125.5 95.001l-73.318 16L67.883 179.6 125.5 95.001z"/><path d="M180 47h19.146l8.329 34.48 6.382 28.64h.623l7.472-28.64L231.368 47h18.057l9.886 34.48 7.627 28.64h.623l6.382-28.64L281.959 47h18.523l-22.181 83.599H256.82L246.391 93.8l-6.071-22.72h-.467l-5.915 22.72-10.274 36.799h-21.17L180 47zm193.355 83.599c-4.359 0-7.835-1.28-10.43-3.84-2.49-2.666-4.047-6.186-4.669-10.56h-.934c-1.349 5.44-4.099 9.547-8.25 12.32-4.151 2.667-9.288 4-15.411 4-8.302 0-14.684-2.24-19.146-6.72-4.463-4.48-6.694-10.453-6.694-17.919 0-8.64 3.01-15.04 9.029-19.2 6.018-4.267 14.58-6.4 25.684-6.4h13.854V76.2c0-4.694-1.194-8.32-3.581-10.88-2.386-2.56-6.226-3.84-11.519-3.84-4.669 0-8.457 1.066-11.363 3.2a29.729 29.729 0 00-7.16 7.36l-11.831-10.88c3.01-4.8 7.005-8.64 11.986-11.52 4.982-2.987 11.571-4.48 19.769-4.48 11.001 0 19.354 2.56 25.062 7.68 5.708 5.12 8.561 12.48 8.561 22.08v39.359h8.095v16.32h-11.052zm-33.001-12.96c4.463 0 8.251-1.013 11.364-3.04 3.113-2.026 4.67-5.013 4.67-8.959V94.6h-12.765c-10.377 0-15.566 3.413-15.566 10.24v2.72c0 3.413 1.038 5.973 3.113 7.679 2.18 1.6 5.241 2.4 9.184 2.4zm84.943 12.96c-6.849 0-12.089-1.813-15.722-5.44-3.528-3.733-5.292-9.013-5.292-15.839V63.4h-11.986V47.08h6.226c3.01 0 5.033-.693 6.071-2.08 1.142-1.493 1.712-3.68 1.712-6.56V24.2h17.902v22.88h16.656V63.4h-16.656v50.879h15.41v16.32h-14.321zm57.31 0c-6.85 0-12.09-1.813-15.722-5.44-3.529-3.733-5.293-9.013-5.293-15.839V63.4h-11.986V47.08h6.227c3.009 0 5.033-.693 6.071-2.08 1.141-1.493 1.712-3.68 1.712-6.56V24.2h17.901v22.88h16.656V63.4h-16.656v50.879h15.41v16.32h-14.32z"/><path opacity=".8" d="M542.403 132.519c-7.783 0-14.321-1.333-19.613-4-5.293-2.773-9.962-6.56-14.01-11.359L520.922 105c3.009 3.52 6.278 6.293 9.807 8.32 3.632 2.026 7.783 3.04 12.453 3.04 4.773 0 8.198-.854 10.273-2.56 2.18-1.707 3.269-4.054 3.269-7.04 0-2.454-.778-4.374-2.335-5.76-1.452-1.494-3.995-2.507-7.627-3.04l-8.095-1.12c-8.82-1.174-15.566-3.734-20.236-7.68-4.566-4.054-6.849-9.92-6.849-17.6 0-4.053.727-7.68 2.18-10.88 1.452-3.307 3.528-6.08 6.226-8.32 2.698-2.347 5.915-4.107 9.651-5.28 3.84-1.28 8.095-1.92 12.764-1.92 3.944 0 7.42.32 10.43.96 3.113.533 5.915 1.387 8.405 2.56a28.223 28.223 0 016.85 4.16 57.219 57.219 0 016.07 5.44l-11.674 12c-2.387-2.56-5.241-4.693-8.562-6.4-3.32-1.707-6.953-2.56-10.896-2.56-4.359 0-7.524.8-9.495 2.4-1.868 1.6-2.802 3.68-2.802 6.24 0 2.773.778 4.906 2.335 6.4 1.66 1.386 4.41 2.4 8.25 3.04l8.25 1.12c17.538 2.56 26.307 10.773 26.307 24.64 0 4.053-.83 7.786-2.491 11.2-1.557 3.306-3.788 6.186-6.693 8.639-2.906 2.347-6.434 4.214-10.585 5.6-4.048 1.28-8.614 1.92-13.699 1.92zm51.061-85.439h19.925v13.76h.623c1.452-4.8 4.202-8.587 8.25-11.36 4.047-2.88 8.769-4.32 14.165-4.32 10.377 0 18.263 3.787 23.663 11.36 5.5 7.467 8.25 18.186 8.25 32.16 0 14.08-2.75 24.906-8.25 32.479-5.4 7.574-13.286 11.36-23.663 11.36-5.396 0-10.118-1.44-14.165-4.32-3.944-2.88-6.694-6.72-8.25-11.519h-.623v45.919h-19.925V47.08zm36.581 68.48c5.188 0 9.391-1.76 12.608-5.28 3.217-3.52 4.826-8.267 4.826-14.24v-14.4c0-5.974-1.609-10.72-4.826-14.24-3.217-3.627-7.42-5.44-12.608-5.44-4.774 0-8.769 1.227-11.986 3.68-3.113 2.453-4.67 5.706-4.67 9.76v26.56c0 4.373 1.557 7.733 4.67 10.08 3.217 2.346 7.212 3.52 11.986 3.52zm89.605 16.959c-6.02 0-11.42-1.013-16.19-3.04-4.67-2.133-8.67-5.066-11.99-8.8-3.22-3.839-5.71-8.426-7.47-13.759-1.77-5.44-2.65-11.52-2.65-18.24 0-6.614.83-12.587 2.49-17.92 1.77-5.333 4.26-9.867 7.47-13.6 3.22-3.84 7.17-6.773 11.84-8.8 4.66-2.133 9.96-3.2 15.87-3.2 6.33 0 11.83 1.12 16.5 3.36 4.67 2.24 8.51 5.28 11.52 9.12 3.01 3.84 5.24 8.32 6.7 13.44 1.55 5.013 2.33 10.4 2.33 16.16v6.72h-54.01v2.08c0 6.08 1.66 10.986 4.98 14.72 3.32 3.626 8.25 5.44 14.78 5.44 4.99 0 9.03-1.067 12.15-3.2 3.21-2.134 6.07-4.854 8.56-8.16l10.74 12.32c-3.32 4.799-7.89 8.586-13.7 11.359-5.71 2.667-12.35 4-19.92 4zm-.32-71.999c-5.29 0-9.49 1.813-12.6 5.44-3.12 3.626-4.67 8.32-4.67 14.08v1.28h33.31v-1.44c0-5.76-1.4-10.4-4.21-13.92-2.69-3.627-6.64-5.44-11.83-5.44zm87.11 71.999c-6.01 0-11.41-1.013-16.18-3.04-4.67-2.133-8.67-5.066-11.99-8.8-3.22-3.839-5.71-8.426-7.47-13.759-1.77-5.44-2.65-11.52-2.65-18.24 0-6.614.83-12.587 2.49-17.92 1.77-5.333 4.26-9.867 7.47-13.6 3.22-3.84 7.16-6.773 11.83-8.8 4.67-2.133 9.97-3.2 15.88-3.2 6.33 0 11.83 1.12 16.5 3.36 4.67 2.24 8.51 5.28 11.52 9.12 3.01 3.84 5.24 8.32 6.69 13.44 1.56 5.013 2.34 10.4 2.34 16.16v6.72h-54.01v2.08c0 6.08 1.66 10.986 4.98 14.72 3.32 3.626 8.25 5.44 14.78 5.44 4.99 0 9.03-1.067 12.15-3.2 3.21-2.134 6.07-4.854 8.56-8.16l10.74 12.32c-3.32 4.799-7.89 8.586-13.7 11.359-5.71 2.667-12.35 4-19.93 4zm-.31-71.999c-5.29 0-9.49 1.813-12.6 5.44-3.12 3.626-4.67 8.32-4.67 14.08v1.28h33.31v-1.44c0-5.76-1.4-10.4-4.21-13.92-2.69-3.627-6.64-5.44-11.83-5.44zm104.7 56.16h-.77c-1.46 4.799-4.21 8.639-8.25 11.519-4.05 2.88-8.77 4.32-14.17 4.32-10.27 0-18.16-3.786-23.66-11.36-5.4-7.573-8.09-18.399-8.09-32.479 0-13.974 2.69-24.693 8.09-32.16 5.5-7.573 13.39-11.36 23.66-11.36 5.4 0 10.12 1.44 14.17 4.32 4.04 2.773 6.79 6.56 8.25 11.36h.77V12.2h19.93v118.399h-19.93V116.68zm-16.81-1.12c4.78 0 8.77-1.174 11.99-3.52 3.22-2.347 4.82-5.707 4.82-10.08V75.4c0-4.054-1.6-7.307-4.82-9.76-3.22-2.453-7.21-3.68-11.99-3.68-5.19 0-9.39 1.813-12.61 5.44-3.11 3.52-4.67 8.266-4.67 14.24v14.4c0 5.973 1.56 10.72 4.67 14.24 3.22 3.52 7.42 5.28 12.61 5.28z"/>
  </symbol>

  <symbol id="facebook" viewBox="0 0 56.693 56.693">
    <path fill="currentColor" d="M40.43,21.739h-7.645v-5.014c0-1.883,1.248-2.322,2.127-2.322c0.877,0,5.395,0,5.395,0V6.125l-7.43-0.029  c-8.248,0-10.125,6.174-10.125,10.125v5.518h-4.77v8.53h4.77c0,10.947,0,24.137,0,24.137h10.033c0,0,0-13.32,0-24.137h6.77  L40.43,21.739z"/>
  </symbol>

  <symbol id="twitter" viewBox="0 0 56.693 56.693">
    <path fill="currentColor" d="M52.837,15.065c-1.811,0.805-3.76,1.348-5.805,1.591c2.088-1.25,3.689-3.23,4.444-5.592c-1.953,1.159-4.115,2-6.418,2.454  c-1.843-1.964-4.47-3.192-7.377-3.192c-5.581,0-10.106,4.525-10.106,10.107c0,0.791,0.089,1.562,0.262,2.303  c-8.4-0.422-15.848-4.445-20.833-10.56c-0.87,1.492-1.368,3.228-1.368,5.082c0,3.506,1.784,6.6,4.496,8.412  c-1.656-0.053-3.215-0.508-4.578-1.265c-0.001,0.042-0.001,0.085-0.001,0.128c0,4.896,3.484,8.98,8.108,9.91  c-0.848,0.23-1.741,0.354-2.663,0.354c-0.652,0-1.285-0.063-1.902-0.182c1.287,4.015,5.019,6.938,9.441,7.019  c-3.459,2.711-7.816,4.327-12.552,4.327c-0.815,0-1.62-0.048-2.411-0.142c4.474,2.869,9.786,4.541,15.493,4.541  c18.591,0,28.756-15.4,28.756-28.756c0-0.438-0.009-0.875-0.028-1.309C49.769,18.873,51.483,17.092,52.837,15.065z"/>
  </symbol>

  <symbol id="awr" viewBox="0 0 62 62">
    <path fill="currentColor" d="M41.2999 0.5C53.3999 4.5 61.8999 16.4 61.8999 30.1C61.8999 47.4 48.2999 61.4 31.3999 61.4C14.5999 61.4 0.899902 47.4 0.899902 30.1C0.899902 28 1.0999 25.9 1.4999 23.8C6.1999 35.4 13.3999 40.6 13.3999 40.6L18.9999 31.2L27.4999 38.9L36.9999 20.2L49.0999 37.3C49.0999 37.4 63.5999 8.4 41.2999 0.5ZM7.1999 11.1C7.4999 11.1 8.0999 11 8.5999 11.2C9.2999 11.5 8.3999 10.9 8.6999 10.5C8.9999 10.1 9.7999 10.9 10.1999 11.1C10.5999 11.3 11.1999 10.7 11.0999 12C11.0999 12.3 11.3999 12.5 11.5999 12.8C11.6999 13 11.7999 13.2 11.9999 13.4C12.4999 14.2 11.9999 12.1 11.7999 11.7C11.5999 11.3 11.5999 9.7 13.5999 8.9C15.5999 8.1 14.6999 7.5 14.7999 6.7C14.8999 5.8 16.0999 5.9 16.4999 5.9C16.8999 5.9 15.5999 5.1 17.1999 4.8C18.7999 4.5 19.7999 5.2 20.1999 4.1C20.5999 3 19.1999 3.9 18.6999 3C18.6999 3 19.1999 2.7 19.1999 2.3C19.1999 1.9 18.8999 1.7 17.1999 2.2C13.3999 4.5 9.8999 7.5 7.1999 11.1ZM38.9999 0.9C39.0999 1 39.1999 1.2 39.4999 1.3C39.8999 1.4 40.1999 1.9 40.0999 2C39.9999 2.1 39.7999 2.4 39.7999 2.9C39.7999 3.4 38.2999 2.3 37.7999 2.6C37.2999 3 37.6999 2.8 37.4999 3.5C37.2999 4.1 37.0999 4.5 37.2999 4.6C37.5999 4.7 36.9999 5.1 37.4999 5.1C37.9999 5.2 37.5999 5.6 38.8999 5.4C40.1999 5.3 39.9999 4.4 39.8999 4.3C39.8999 4.3 40.2999 4.1 40.2999 3.8C40.2999 3.5 40.4999 3.4 40.9999 3.5C41.5999 3.6 41.6999 2.8 42.5999 2.9C43.4999 3 43.6999 3.3 44.0999 3.9C44.4999 4.4 44.2999 4.4 44.6999 4.6C45.0999 4.7 45.1999 5 44.9999 5.1C44.7999 5.2 44.8999 5.4 44.6999 5.4C44.5999 5.4 44.3999 5.3 44.2999 5.2C44.1999 5.1 43.8999 5.3 43.9999 5.3C43.9999 5.3 44.4999 5.7 44.6999 5.7C44.8999 5.7 44.8999 5.6 44.9999 5.4C45.0999 5.2 44.9999 5.2 45.0999 5.1C45.1999 5 45.3999 5 45.3999 4.8C45.3999 4.6 45.1999 4.7 45.2999 4.7C45.3999 4.7 45.5999 4.8 45.6999 4.7C45.7999 4.6 45.7999 4.5 45.7999 4.4C43.9999 2.9 41.5999 1.7 38.9999 0.9ZM4.1999 16.9C4.6999 17.2 5.6999 17.8 6.5999 18.1C7.8999 18.5 8.4999 18.4 8.4999 18.6C8.4999 18.8 9.1999 19.1 9.0999 19.6C8.9999 20 8.8999 20.1 9.4999 20.2C9.9999 20.3 9.7999 20.8 10.5999 20.9C10.5999 20.9 10.7999 20.9 10.8999 21C10.9999 21.1 11.1999 21.4 10.9999 21.8V21.9C10.7999 22.1 10.6999 22.2 10.5999 22.4C10.4999 22.7 9.7999 22.4 10.2999 23.6C10.7999 24.7 9.4999 25 8.8999 26.6C8.8999 26.6 8.3999 27.5 8.4999 28.1C8.4999 28.2 8.5999 28.3 8.5999 28.4C8.7999 28.7 9.3999 29.4 9.7999 29.8C10.3999 30.5 10.3999 31.1 10.5999 32.1C10.7999 33.1 12.4999 32.9 13.1999 34.6C13.6999 35.7 12.8999 36.7 12.2999 37.9L13.0999 38.7L17.8999 30.7L18.7999 29.2L20.0999 30.3L25.3999 35.1C25.4999 34.7 25.5999 34.2 25.6999 33.8C25.7999 32.5 26.0999 32.8 26.1999 32.5C26.3999 32.2 27.8999 31 27.5999 30.3C27.2999 29.7 26.1999 28.3 24.2999 28.3C24.0999 28.3 23.8999 28.2 23.7999 28.1C23.5999 27.9 23.1999 27.6 22.7999 27.6C22.1999 27.6 20.8999 28.5 21.0999 27.7C21.2999 26.9 22.0999 27.3 21.8999 26.4C21.6999 25.5 20.5999 24.4 19.5999 24.6C18.6999 24.8 18.4999 24.3 18.3999 24.1C18.2999 23.8 17.9999 23.6 17.4999 23.4C16.9999 23.2 16.5999 23 16.4999 22.8C16.3999 22.6 15.1999 22.3 14.4999 22.2H14.3999C14.0999 22.2 13.5999 21.9 13.1999 21.7C13.0999 21.6 12.8999 21.5 12.8999 21.3C12.7999 20.9 12.4999 20.5 11.9999 20.4C11.1999 20.3 11.0999 21 10.7999 20.1C10.6999 20 10.1999 19.5 10.4999 18.6C10.6999 17.6 10.5999 17.8 9.8999 17.5C9.1999 17.2 8.0999 17.7 8.5999 17.1C9.0999 16.5 9.4999 15.7 9.4999 15.4C9.4999 15.1 8.1999 15 7.7999 15.7C7.3999 16.4 6.0999 16.1 5.6999 16C5.3999 15.9 5.0999 15.3 4.9999 14.8C4.5999 15.5 4.2999 16.1 3.9999 16.8C3.9999 16.7 4.0999 16.8 4.1999 16.9ZM32.1999 15.6C31.8999 16.3 31.8999 17.1 32.0999 17.9C32.2999 18.6 32.5999 19.4 33.1999 19.7C33.6999 20.1 34.1999 20.7 34.8999 21.3L35.7999 19.5L36.7999 17.4L38.1999 19.3L39.8999 21.7C40.3999 21.6 40.7999 21.6 41.0999 21.8C41.7999 22.2 41.8999 22.7 42.8999 22.6C43.6999 22.5 42.1999 23.8 42.3999 25.2L48.8999 34.4C50.7999 29.9 54.2999 19.2 51.0999 11C50.8999 10.5 50.6999 10 50.3999 9.5C49.6999 9.4 47.2999 9.6 46.7999 9.2C46.2999 8.8 44.5999 8.4 44.7999 8.1C44.8999 7.8 45.2999 7.2 45.1999 6.8C45.0999 6.4 42.0999 6.5 41.6999 6.7C41.2999 6.8 37.8999 7.8 37.5999 6.9C37.3999 6 34.9999 9 34.7999 9.3C34.5999 9.7 33.1999 10.8 32.6999 12.2C32.1999 13.5 31.6999 13.3 31.8999 13.7C31.9999 14.2 32.8999 13.9 32.1999 15.6Z"/>
  </symbol>
  </symbol>

  <symbol id="chrome" viewBox="0 0 32 32">
    <title>Chrome logo</title>
    <path d="m16 10c3.3 0 6 2.7 6 6s-2.7 6-6 6-6-2.7-6-6 2.7-6 6-6zm0 14c-4 0-7.4-3-7.9-6.9l-5.5-9.6-.7.9c-.1.3-.3.6-.4.8l-.3.7c-.1.2-.2.5-.3.7-.1.3-.2.5-.3.8l-.2.6c-.1.3-.1.6-.2.9l-.1.6c0 .3-.1.6-.1.9l0 .8v.8s0 .5 0 .8l.1.7c0 .3.1.6.1.9l.1.6c.1.3.1.6.2.9l.2.6c.1.3.2.6.3.8s.2.5.3.7.2.5.3.7c.1.3.3.6.4.9l.1.4.1.1.6.9.3.5c.2.3.4.5.6.8l.4.5c.2.2.4.4.6.6s.4.4.6.6l.5.4c.2.2.5.4.8.6l.4.2c.3.2.6.4.9.6l.1.1.4.2c.3.2.6.3.9.4h.1l.4.2c1.1.5 2.2.8 3.4 1l4.6-7.9c-.7.1-1.2.2-1.8.2zm15.9-9.1v-.3c-.1-1.3-.7-3.3-1.1-4.6h-9.4c1.6 1.5 2.6 3.6 2.6 6 0 2.5-1.2 4.8-3 6.3l-5.7 9.7c2 0 4.6-.4 6.6-1.1h.1.1c.7-.3 1.3-.6 1.9-.9s1.1-.7 1.6-1.1c.5-.4.9-.8 1.4-1.2l.1-.1.2-.2c1-1 1.8-2 2.5-3.2l.1-.1.1-.3c.2-.4.4-.8.6-1.2l.2-.6c.2-.4.3-.8.4-1.2l.2-.5c.2-.6.3-1.1.4-1.7v-.3c.1-.5.1-1 .1-1.5v-.4c.1-.5.1-1 0-1.5zm-2.1-6.9c-.3-.6-.7-1.1-1.1-1.6l-.1-.2c-.4-.5-.7-.9-1.1-1.3l-.3-.3c-.4-.4-.9-.8-1.4-1.2l-.1-.1c-.5-.4-1.1-.8-1.6-1.1l-.1-.1-.4-.2c-.3-.1-.5-.3-.8-.4-.2-.1-.5-.2-.7-.3l-.7-.2c-.3-.1-.6-.2-.9-.3l-.5-.2c-.3-.1-.7-.2-1-.2l-.5-.1c-.3-.1-.7-.1-1-.1l-.5-.1c-.3 0-.6 0-.8 0h-.7-.5c-1.2.1-2.4.3-3.6.6l-.2.1c-.3.1-.6.2-.9.3l-.6.3c-.3.1-.5.2-.8.3-.2.2-.4.3-.7.4l-.2.1-.4.3c-.2.1-.5.3-.7.4-.2.2-.4.3-.6.5l-.6.4c-.2.2-.4.4-.6.6l-.4.4c-.3.2-.5.5-.7.7l-.2.2 4.6 7.9c1-3.2 4-5.5 7.6-5.5z" fill="currentColor"/>
  </symbol>

  <symbol id="pagespeed" viewBox="0 0 16 16">
    <title>PageSpeed</title>
    <path d="m3.5 12.5h-3v-1.5c0-4.1 3.4-7.5 7.5-7.5s7.5 3.4 7.5 7.5v1.5h-3m-11.4-4.3 1.9.7m5-5.4v2m5.1 3.3 1.9-.7m-7 4.9 3-6.3" stroke="currentColor" fill="none" stroke-miterlimit="10"/>
  </symbol>

  <symbol id="html5" viewBox="0 0 16 16">
    <title>HTML5</title>
    <path d="m1 .5h14l-1 12.3-6 2.8-6-2.8zm3.8 8.5v1.2l3.1 1.2 3.5-1.2v-3.3l-6.6.1v-3.5h7" stroke="currentColor" fill="none" stroke-miterlimit="10"/>
  </symbol>

  <symbol id="mobile" viewBox="0 0 16 16">
    <title>Small mobile device</title>
    <path d="m7 13.5h2m2.5 2h-7c-.6 0-1-.4-1-1v-13c0-.6.4-1 1-1h7c .6 0 1 .4 1 1v13c0 .6-.4 1-1 1zm-6-14.5v.2c0 .6.4 1 1 1h3c .6 0 1-.4 1-1v-.2" stroke="currentColor" fill="none" stroke-linecap="round" stroke-miterlimit="10"/>
  </symbol>

  <symbol id="mixed" viewBox="0 0 16 16">
    <title>Mixed content</title>
    <path d="m12.3 4h-3.2c-1 0-1.8.9-1.8 2v1c0 1.1-.8 1-1.8 1h-5.5m12.6-1.5 2.4-2.5-2.4-2.5m-.3 10.5h-3.2c-1 0-1.8-.9-1.8-2v-1c0-1.1-.8-1-1.8-1h-5.5m12.6 6.5 2.4-2.5-2.4-2.5" fill="none" stroke-miterlimit="10"/>
  </symbol>

  <symbol id="crux" viewBox="0 0 16 16">
    <title>Chrome User Experience</title>
    <path d="M8 5.5a2 2 0 11.001 3.999A2 2 0 018 5.5zM4 7.621V2.75a1.75 1.75 0 10-3.5 0V8a7 7 0 007 7h1a7 7 0 007-7V2.75a1.75 1.75 0 10-3.5 0v4.871a4 4 0 01-8 0z" stroke="currentColor" stroke-width="1" vector-effect="non-scaling-stroke"/>
  </symbol>

  <symbol id="a11y" viewBox="0 0 16 16">
    <title>Accessibility</title>
    <path d="m9.5 15.5h-3c-.6 0-1-.4-1-1v-6h-4v-2h13v2h-4v6c0 .6-.4 1-1 1zm-1.5-14.7c-1 0-1.8.8-1.8 1.8s.8 1.7 1.8 1.7 1.8-.8 1.8-1.8-.8-1.7-1.8-1.7zm0 10.7v4" stroke="currentColor" fill="none" stroke-miterlimit="10"/>
  </symbol>

  <symbol id="refresh" viewBox="0 0 16 16">
    <path d="m13.9 11.7c-.6 1.2-1.7 2.2-3 2.9-3.3 1.5-7.2.1-8.8-3.2s-.1-7.2 3.2-8.8 7.2-.1 8.8 3.2m.4-5v5.2h-5.5m5.5-5.2" fill="none" stroke="currentColor" stroke-miterlimit="10"/>
  </symbol>

  <symbol id="heart" viewBox="-0.7 -11.5 141.7 141.7">
    <title>Heart</title>
    <path d="M140.314,37.654C140.314,16.858,123.402,0,102.537,0c-13.744,0-25.77,7.317-32.379,18.255C63.549,7.317,51.521,0,37.777,0   C16.912,0,0,16.858,0,37.654c0,10.821,4.588,20.57,11.922,27.438h-0.01l54.084,51.584c0.992,1.188,2.48,1.945,4.148,1.945   c1.545,0,2.936-0.653,3.92-1.696l54.346-51.833h-0.016C135.729,58.225,140.314,48.476,140.314,37.654" />
  </symbol>

  <symbol id="github" viewBox="0 0 32 32">
    <path fill="currentColor" d="m16 .4c-8.8 0-16 7.2-16 16 0 7.1 4.6 13.1 10.9 15.2.8.1 1.1-.3 1.1-.8 0-.4 0-1.6 0-3-4.4 1-5.4-1.9-5.4-1.9-.7-1.8-1.8-2.3-1.8-2.3-1.5-1 .1-1 .1-1 1.6.1 2.5 1.6 2.5 1.6 1.4 2.4 3.7 1.7 4.7 1.3.1-1 .6-1.7 1-2.1-3.6-.4-7.3-1.8-7.3-7.9 0-1.7.6-3.2 1.6-4.3-.2-.4-.7-2 .2-4.2 0 0 1.3-.4 4.4 1.6 1.3-.4 2.6-.5 4-.5s2.7.2 4 .5c3.1-2 4.4-1.6 4.4-1.6.9 2.2.3 3.8.2 4.2 1 1.1 1.6 2.5 1.6 4.3 0 6.1-3.7 7.5-7.3 7.9.6.5 1.1 1.5 1.1 3v4.4c0 .4.3.9 1.1.8 6.3-2.1 10.9-8.1 10.9-15.2 0-8.8-7.2-16-16-16z"> </path>
  </symbol>

  <symbol id="shield" viewBox="0 0 16 16">
    <desc>Shield icon</desc>
    <path d="M8.196,14.431C8.196,14.431 5.426,12.499 4.661,11.304C3.718,9.831 2.541,2.945 2.541,2.945L8.196,0.702M8.196,14.431C8.196,14.431 10.966,12.499 11.731,11.304C12.674,9.831 13.851,2.945 13.851,2.945L8.196,0.702" stroke="currentColor" stroke-width="1" vector-effect="non-scaling-stroke"/>
  </symbol>

  <symbol id="cwv-passed" viewBox="0 0 75 50">
    <desc>CWV passed</desc>
    <g transform="matrix(0.99865,0,0,0.998917,1.66211,-0.742269)">
      <path d="M66.347,6.135C66.347,4.527 65.041,3.221 63.433,3.221L8.952,3.221C7.344,3.221 6.038,4.527 6.038,6.135L6.038,45.405C6.038,47.014 7.344,48.319 8.952,48.319L63.433,48.319C65.041,48.319 66.347,47.014 66.347,45.405L66.347,6.135Z" style="fill:rgb(61,78,96);stroke:rgb(145,144,147);stroke-width:1px;"/>
    </g>
    <g transform="matrix(0.31706,0,0,0.31706,-0.189948,5.86441)">
      <g transform="matrix(1,0,0,1,-10.8769,-59.0747)">
        <path d="M25.334,146.207L61.358,143.831L102,106L139.167,131.587L169.406,90.316L213,106L235.098,70.49" style="fill:none;fill-rule:nonzero;stroke:rgb(57,176,126);stroke-width:9.2px;stroke-linejoin:miter;stroke-miterlimit:4;"/>
      </g>
      <g transform="matrix(1,0,0,1,-8.47453,-45.065)">
        <path d="M28.726,154.761L65.756,151.875L102,117L139.503,145.371L169.868,105.418L213,117L238.138,76.306" style="fill:none;fill-rule:nonzero;stroke:rgb(57,176,126);stroke-opacity:0.1;stroke-width:9.2px;stroke-linejoin:miter;stroke-miterlimit:4;"/>
      </g>
      <g transform="matrix(-2.8155,4.6003,-4.6003,-2.8155,90.3178,49.2738)">
        <circle cx="0" cy="0" r="2.918" style="fill:rgb(57,176,126);"/>
      </g>
    </g>
  </symbol>

  <symbol id="cwv-failed" viewBox="0 0 75 50">
    <desc>CWV failed</desc>
    <g transform="matrix(0.99865,0,0,0.998917,1.66211,-0.742269)">
      <path d="M66.347,6.135C66.347,4.527 65.041,3.221 63.433,3.221L8.952,3.221C7.344,3.221 6.038,4.527 6.038,6.135L6.038,45.405C6.038,47.014 7.344,48.319 8.952,48.319L63.433,48.319C65.041,48.319 66.347,47.014 66.347,45.405L66.347,6.135Z" style="fill:rgb(61,78,96);stroke:rgb(145,144,147);stroke-width:1px;"/>
    </g>
    <g transform="matrix(0.31706,0,0,-0.31706,-0.587758,36.787)">
      <g transform="matrix(1,0,0,1,-10.8769,-59.0747)">
        <path d="M25.334,146.207L61.358,143.831L102,106L139.167,131.587L169.406,90.316L213,106L235.098,70.49" style="fill:none;fill-rule:nonzero;stroke:rgb(245,76,60);stroke-width:9.2px;stroke-linejoin:miter;stroke-miterlimit:4;"/>
      </g>
      <g transform="matrix(1,0,0,1,-12.3395,-104.118)">
        <path d="M28.726,154.761L65.756,151.875L102,117L139.503,145.371L169.868,105.418L213,117L238.138,76.306" style="fill:none;fill-rule:nonzero;stroke:rgb(255,78,66);stroke-opacity:0.1;stroke-width:9.2px;stroke-linejoin:miter;stroke-miterlimit:4;"/>
      </g>
      <g transform="matrix(-2.8155,4.6003,-4.6003,-2.8155,90.3178,49.2738)">
        <circle cx="0" cy="0" r="2.918" style="fill:rgb(245,76,60);"/>
      </g>
    </g>
  </symbol>

  <symbol id="cwv-no-data" viewBox="0 0 24 24">
    <desc>CWV no data</desc>
    <path d="M5.715,2.48L7.749,0.763L27.702,0.997L28.397,1.889L28.464,20.606L27.251,22.165L5.017,21.998L3.761,21.233L3.72,4.286L5.715,2.48" style="fill:rgb(61,78,96);"/>
    <g transform="matrix(3.66666,-0.521815,0.521815,3.66666,-52.8563,-6.53117)">
      <g transform="matrix(0.0830125,0,0,0.0830125,8.27126,4.1691)">
        <path d="M144.763,79.744C144.463,79.744 144.163,79.744 143.963,79.644L74.163,69.744C70.863,69.244 68.563,66.244 69.063,62.944L76.6,10.3C76.7,9.8 77.2,9.4 77.7,9.5C78.2,9.6 78.6,10.1 78.5,10.6L70.963,63.244C70.663,65.444 72.163,67.444 74.363,67.744L144.163,77.644C146.363,77.944 148.363,76.444 148.663,74.244L157,15.3C157.3,13.1 155.8,11.1 153.6,10.8L91.7,2C91.2,1.9 90.8,1.4 90.9,0.9C91,0.3 91.5,-0.1 92,-0L154,8.8C157.3,9.3 159.6,12.3 159.1,15.6L150.763,74.544C150.263,77.544 147.663,79.744 144.763,79.744" style="fill:rgb(145,144,147);fill-rule:nonzero;"/>
      </g>
      <g transform="matrix(0.0830125,0,0,0.0830125,8.27126,4.1691)">
        <path d="M90.3,12.1L77.5,10.3L91.8,1L90.3,12.1Z" style="fill:rgb(56,70,86);fill-rule:nonzero;"/>
      </g>
      <g transform="matrix(0.0830125,0,0,0.0830125,8.27126,4.1691)">
        <path d="M90.3,13.1L90.2,13.1L77.5,11.3C77.1,11.2 76.8,10.9 76.7,10.5C76.6,10.1 76.8,9.7 77.1,9.4L91.4,0.1C91.7,-0.1 92.2,-0.1 92.5,0.1C92.8,0.3 93,0.7 93,1.1L91.4,12.2C91.4,12.5 91.2,12.7 91,12.9C90.7,13.1 90.5,13.1 90.3,13.1M80.3,9.7L89.4,11L90.5,3L80.3,9.7" style="fill:rgb(145,144,147);fill-rule:nonzero;"/>
      </g>
    </g>
    <g transform="matrix(0.269767,0,0,0.269767,0.190868,-21.6745)">
      <g transform="matrix(0.707107,0.707107,-0.707107,0.707107,77.8858,41.5149)">
        <path d="M66.2,71.9L21.9,71.9C21.3,71.9 20.9,71.5 20.9,70.9C20.9,70.3 21.3,69.9 21.9,69.9L66.2,69.9C66.8,69.9 67.2,70.3 67.2,70.9C67.2,71.5 66.7,71.9 66.2,71.9" style="fill:rgb(245,76,60);fill-rule:nonzero;"/>
      </g>
      <g transform="matrix(0.707107,-0.707107,0.707107,0.707107,-22.3819,103.811)">
        <path d="M66.2,71.9L21.9,71.9C21.3,71.9 20.9,71.5 20.9,70.9C20.9,70.3 21.3,69.9 21.9,69.9L66.2,69.9C66.8,69.9 67.2,70.3 67.2,70.9C67.2,71.5 66.7,71.9 66.2,71.9" style="fill:rgb(245,76,60);fill-rule:nonzero;"/>
      </g>
    </g>
  </symbol>
</svg>
