<svg xmlns="http://www.w3.org/2000/svg" width="0" height="0" display="none">
  <symbol id="logo" viewBox="0 0 921.9 191.1">
    <title>Wattspeed logo</title>
    <path d="m101.9 69 47.1-69h-65l-84 123h64.1.9 64.1l36.9-54z"/><path d="m50 143.7-32.4 47.4h65l46.5-68.1z" opacity=".8"/><path d="m186.1 55.5h19.3l10 42.6c1.6 7.9 2.8 15.6 4.3 23.6h.7c1.6-8 3.2-15.9 5.2-23.6l10.8-42.6h17.4l11 42.6c2 7.9 3.6 15.6 5.4 23.6h.7c1.6-8 2.8-15.7 4.4-23.6l9.8-42.6h18l-20.8 82h-22.8l-9.6-38.3c-1.7-7.7-3.2-15.2-4.9-23.8h-.7c-1.6 8.6-3 16.3-4.9 23.9l-9.3 38.1h-22.2zm127.1 60c0-17.6 14.6-26.7 48.2-30.3-.3-8.8-3.8-16.2-14.9-16.2-8.1 0-15.8 3.7-23 8.1l-7.1-12.8c9-5.7 20.6-10.8 33.7-10.8 20.5 0 30.6 12.6 30.6 35.5v48.6h-15.8l-1.5-9.1h-.5c-7.3 6.3-15.8 11.1-25.5 11.1-14.3-.1-24.2-9.8-24.2-24.1zm48.2 0v-18.4c-22.2 2.8-29.7 8.6-29.7 16.9 0 7.2 4.9 10.4 11.8 10.4 6.8 0 11.8-3.3 17.9-8.9zm42.6-5.6v-39.1h-11.7v-14.5l12.7-.9 2.3-22.4h16v22.4h20.9v15.3h-20.9v39c0 9.7 3.7 14.4 11.6 14.4 2.8 0 6.1-.9 8.6-1.9l3.3 14.2c-4.5 1.5-10.2 3-16.8 3-19 .1-26-11.8-26-29.5zm56.9 0v-39.1h-11.7v-14.5l12.7-.9 2.3-22.4h16v22.4h20.9v15.3h-20.9v39c0 9.7 3.7 14.4 11.6 14.4 2.8 0 6.1-.9 8.6-1.9l3.3 14.2c-4.5 1.5-10.2 3-16.8 3-19 .1-26-11.8-26-29.5z"/><path d="m508.5 128.1 9-12.2c7.3 5.7 14.3 9.2 22.6 9.2 9 0 13.2-4.2 13.2-9.8 0-6.9-8.9-10-17.6-13.3-10.8-4-23-10.2-23-23.9 0-14.2 11.5-24.5 29.9-24.5 11.4 0 20.6 4.6 27.3 9.8l-8.8 11.8c-5.7-4.2-11.5-7.1-18-7.1-8.3 0-12.2 3.9-12.2 9.1 0 6.5 8.3 9 17.2 12.2 11.1 4.1 23.5 9.5 23.5 24.8 0 14.1-11.2 25.5-31.9 25.5-11.3-.2-23.2-5-31.2-11.6zm80.1-72.6h15.8l1.5 8.8h.5c6.9-5.9 15.7-10.8 24.7-10.8 20.5 0 32.3 16.4 32.3 41.8 0 28.1-16.8 44.3-35 44.3-7.3 0-14.4-3.3-21.1-9l .6 13.6v25.8h-19.2v-114.5zm55 39.9c0-16.4-5.3-26.1-17.8-26.1-5.9 0-11.6 3-17.9 9.2v38.2c5.9 5 11.7 6.8 16.4 6.8 11 .1 19.3-9.5 19.3-28.1zm33.8 1.2c0-26.7 18.5-43.1 37.8-43.1 22.2 0 33.9 16 33.9 38.9 0 3.7-.4 7.3-.8 9.4h-52.1c1.6 14.6 11 22.8 24.2 22.8 7 0 13-2.2 19-5.9l6.5 12c-7.8 5.3-17.7 8.9-28.1 8.9-22.6-.1-40.4-16-40.4-43zm55.1-7.9c0-12.6-5.6-20.3-16.8-20.3-9.6 0-18 7.1-19.6 20.3zm29.6 7.9c0-26.7 18.5-43.1 37.8-43.1 22.2 0 33.9 16 33.9 38.9 0 3.7-.4 7.3-.8 9.4h-52.1c1.6 14.6 11 22.8 24.2 22.8 7 0 13-2.2 19-5.9l6.5 12c-7.8 5.3-17.7 8.9-28.1 8.9-22.6-.1-40.4-16-40.4-43zm55-7.9c0-12.6-5.6-20.3-16.8-20.3-9.6 0-18 7.1-19.6 20.3zm30.1 7.9c0-26.7 16.8-43.1 34.7-43.1 9.3 0 15.2 3.5 21.5 9l-.7-13.2v-29.8h19.2v118h-15.8l-1.5-8.9h-.5c-6.1 6.1-14.5 10.9-23.3 10.9-20.4 0-33.6-15.9-33.6-42.9zm55.5 17.8v-38.2c-5.6-5-11.2-6.8-16.7-6.8-10.4 0-19 9.9-19 27 0 17.8 6.8 27.3 18.6 27.3 6.3-.1 11.7-2.9 17.1-9.3z" opacity=".8"/>
  </symbol>

  <symbol id="facebook" viewBox="0 0 56.693 56.693">
    <path fill="currentColor" d="M40.43,21.739h-7.645v-5.014c0-1.883,1.248-2.322,2.127-2.322c0.877,0,5.395,0,5.395,0V6.125l-7.43-0.029  c-8.248,0-10.125,6.174-10.125,10.125v5.518h-4.77v8.53h4.77c0,10.947,0,24.137,0,24.137h10.033c0,0,0-13.32,0-24.137h6.77  L40.43,21.739z"/>
  </symbol>

  <symbol id="twitter" viewBox="0 0 56.693 56.693">
    <path fill="currentColor" d="M52.837,15.065c-1.811,0.805-3.76,1.348-5.805,1.591c2.088-1.25,3.689-3.23,4.444-5.592c-1.953,1.159-4.115,2-6.418,2.454  c-1.843-1.964-4.47-3.192-7.377-3.192c-5.581,0-10.106,4.525-10.106,10.107c0,0.791,0.089,1.562,0.262,2.303  c-8.4-0.422-15.848-4.445-20.833-10.56c-0.87,1.492-1.368,3.228-1.368,5.082c0,3.506,1.784,6.6,4.496,8.412  c-1.656-0.053-3.215-0.508-4.578-1.265c-0.001,0.042-0.001,0.085-0.001,0.128c0,4.896,3.484,8.98,8.108,9.91  c-0.848,0.23-1.741,0.354-2.663,0.354c-0.652,0-1.285-0.063-1.902-0.182c1.287,4.015,5.019,6.938,9.441,7.019  c-3.459,2.711-7.816,4.327-12.552,4.327c-0.815,0-1.62-0.048-2.411-0.142c4.474,2.869,9.786,4.541,15.493,4.541  c18.591,0,28.756-15.4,28.756-28.756c0-0.438-0.009-0.875-0.028-1.309C49.769,18.873,51.483,17.092,52.837,15.065z"/>
  </symbol>

  <symbol id="chrome" viewBox="0 0 32 32">
    <title>Chrome logo</title>
    <path d="m16 10c3.3 0 6 2.7 6 6s-2.7 6-6 6-6-2.7-6-6 2.7-6 6-6zm0 14c-4 0-7.4-3-7.9-6.9l-5.5-9.6-.7.9c-.1.3-.3.6-.4.8l-.3.7c-.1.2-.2.5-.3.7-.1.3-.2.5-.3.8l-.2.6c-.1.3-.1.6-.2.9l-.1.6c0 .3-.1.6-.1.9l0 .8v.8s0 .5 0 .8l.1.7c0 .3.1.6.1.9l.1.6c.1.3.1.6.2.9l.2.6c.1.3.2.6.3.8s.2.5.3.7.2.5.3.7c.1.3.3.6.4.9l.1.4.1.1.6.9.3.5c.2.3.4.5.6.8l.4.5c.2.2.4.4.6.6s.4.4.6.6l.5.4c.2.2.5.4.8.6l.4.2c.3.2.6.4.9.6l.1.1.4.2c.3.2.6.3.9.4h.1l.4.2c1.1.5 2.2.8 3.4 1l4.6-7.9c-.7.1-1.2.2-1.8.2zm15.9-9.1v-.3c-.1-1.3-.7-3.3-1.1-4.6h-9.4c1.6 1.5 2.6 3.6 2.6 6 0 2.5-1.2 4.8-3 6.3l-5.7 9.7c2 0 4.6-.4 6.6-1.1h.1.1c.7-.3 1.3-.6 1.9-.9s1.1-.7 1.6-1.1c.5-.4.9-.8 1.4-1.2l.1-.1.2-.2c1-1 1.8-2 2.5-3.2l.1-.1.1-.3c.2-.4.4-.8.6-1.2l.2-.6c.2-.4.3-.8.4-1.2l.2-.5c.2-.6.3-1.1.4-1.7v-.3c.1-.5.1-1 .1-1.5v-.4c.1-.5.1-1 0-1.5zm-2.1-6.9c-.3-.6-.7-1.1-1.1-1.6l-.1-.2c-.4-.5-.7-.9-1.1-1.3l-.3-.3c-.4-.4-.9-.8-1.4-1.2l-.1-.1c-.5-.4-1.1-.8-1.6-1.1l-.1-.1-.4-.2c-.3-.1-.5-.3-.8-.4-.2-.1-.5-.2-.7-.3l-.7-.2c-.3-.1-.6-.2-.9-.3l-.5-.2c-.3-.1-.7-.2-1-.2l-.5-.1c-.3-.1-.7-.1-1-.1l-.5-.1c-.3 0-.6 0-.8 0h-.7-.5c-1.2.1-2.4.3-3.6.6l-.2.1c-.3.1-.6.2-.9.3l-.6.3c-.3.1-.5.2-.8.3-.2.2-.4.3-.7.4l-.2.1-.4.3c-.2.1-.5.3-.7.4-.2.2-.4.3-.6.5l-.6.4c-.2.2-.4.4-.6.6l-.4.4c-.3.2-.5.5-.7.7l-.2.2 4.6 7.9c1-3.2 4-5.5 7.6-5.5z" fill="currentColor"/>
  </symbol>

  <symbol id="technologies" viewBox="0 0 16 16">
    <title>Technologies</title>
    <path d="m4.5 12-4-4 4-4m7 8 4-4-4-4m-1.7-1.5-3.5 11" fill="none" stroke-miterlimit="10"/>
  </symbol>

  <symbol id="pagespeed" viewBox="0 0 16 16">
    <title>PageSpeed</title>
    <path d="m3.5 12.5h-3v-1.5c0-4.1 3.4-7.5 7.5-7.5s7.5 3.4 7.5 7.5v1.5h-3m-11.4-4.3 1.9.7m5-5.4v2m5.1 3.3 1.9-.7m-7 4.9 3-6.3" fill="none" stroke-miterlimit="10"/>
  </symbol>

  <symbol id="html5" viewBox="0 0 16 16">
    <title>HTML5</title>
    <path d="m1 .5h14l-1 12.3-6 2.8-6-2.8zm3.8 8.5v1.2l3.1 1.2 3.5-1.2v-3.3l-6.6.1v-3.5h7" fill="none" stroke-miterlimit="10"/>
  </symbol>

  <symbol id="mobile" viewBox="0 0 16 16">
    <title>Small mobile device</title>
    <path d="m7 13.5h2m2.5 2h-7c-.6 0-1-.4-1-1v-13c0-.6.4-1 1-1h7c .6 0 1 .4 1 1v13c0 .6-.4 1-1 1zm-6-14.5v.2c0 .6.4 1 1 1h3c .6 0 1-.4 1-1v-.2" fill="none" stroke-linecap="round" stroke-miterlimit="10"/>
  </symbol>

  <symbol id="mixed" viewBox="0 0 16 16">
    <title>Mixed content</title>
    <path d="m12.3 4h-3.2c-1 0-1.8.9-1.8 2v1c0 1.1-.8 1-1.8 1h-5.5m12.6-1.5 2.4-2.5-2.4-2.5m-.3 10.5h-3.2c-1 0-1.8-.9-1.8-2v-1c0-1.1-.8-1-1.8-1h-5.5m12.6 6.5 2.4-2.5-2.4-2.5" fill="none" stroke-miterlimit="10"/>
  </symbol>

  <symbol id="accessibility" viewBox="0 0 16 16">
    <title>Accessibility</title>
    <path d="m9.5 15.5h-3c-.6 0-1-.4-1-1v-6h-4v-2h13v2h-4v6c0 .6-.4 1-1 1zm-1.5-14.7c-1 0-1.8.8-1.8 1.8s.8 1.7 1.8 1.7 1.8-.8 1.8-1.8-.8-1.7-1.8-1.7zm0 10.7v4" fill="none" stroke-miterlimit="10"/>
  </symbol>

  <symbol id="refresh" viewBox="0 0 16 16">
    <path d="m13.9 11.7c-.6 1.2-1.7 2.2-3 2.9-3.3 1.5-7.2.1-8.8-3.2s-.1-7.2 3.2-8.8 7.2-.1 8.8 3.2m.4-5v5.2h-5.5m5.5-5.2" fill="none" stroke="currentColor" stroke-miterlimit="10"/>
  </symbol>

  <symbol id="heart" viewBox="-0.7 -11.5 141.7 141.7">
    <title>Heart</title>
    <path d="M140.314,37.654C140.314,16.858,123.402,0,102.537,0c-13.744,0-25.77,7.317-32.379,18.255C63.549,7.317,51.521,0,37.777,0   C16.912,0,0,16.858,0,37.654c0,10.821,4.588,20.57,11.922,27.438h-0.01l54.084,51.584c0.992,1.188,2.48,1.945,4.148,1.945   c1.545,0,2.936-0.653,3.92-1.696l54.346-51.833h-0.016C135.729,58.225,140.314,48.476,140.314,37.654" />
  </symbol>

  <symbol id="github" viewBox="0 0 32 32">
    <path fill="currentColor" d="m16 .4c-8.8 0-16 7.2-16 16 0 7.1 4.6 13.1 10.9 15.2.8.1 1.1-.3 1.1-.8 0-.4 0-1.6 0-3-4.4 1-5.4-1.9-5.4-1.9-.7-1.8-1.8-2.3-1.8-2.3-1.5-1 .1-1 .1-1 1.6.1 2.5 1.6 2.5 1.6 1.4 2.4 3.7 1.7 4.7 1.3.1-1 .6-1.7 1-2.1-3.6-.4-7.3-1.8-7.3-7.9 0-1.7.6-3.2 1.6-4.3-.2-.4-.7-2 .2-4.2 0 0 1.3-.4 4.4 1.6 1.3-.4 2.6-.5 4-.5s2.7.2 4 .5c3.1-2 4.4-1.6 4.4-1.6.9 2.2.3 3.8.2 4.2 1 1.1 1.6 2.5 1.6 4.3 0 6.1-3.7 7.5-7.3 7.9.6.5 1.1 1.5 1.1 3v4.4c0 .4.3.9 1.1.8 6.3-2.1 10.9-8.1 10.9-15.2 0-8.8-7.2-16-16-16z"> </path>
  </symbol>
</svg>
