<svg xmlns="http://www.w3.org/2000/svg" width="0" height="0" display="none">
  <symbol id="logo" viewBox="0 0 894.9 202.2" >
    <title>AWRStudyr</title>
    <path d="m84.5 1c-49 9-84.5 51-84.5 99.7 0 56 46.7 101.5 104 101.5 27.8 0 54.2-10.5 74.4-29.6 20.4-19.3 31.6-44.8 31.6-71.9 0-4.4-3.8-7.9-8.3-7.5-3.9.4-6.7 3.8-6.7 7.7-.1 46.8-41.7 86.2-90.9 86.2-49.1 0-89-38.8-89-86.5 0-41 29.6-76.3 70.6-84.6 4.5-.7 8.9-1 13.5-1 23.4 0 45.5 9.9 60.9 27.3 8 9.5 12.6 21.7 12.6 34.4 0 11.3-3.4 22-9.6 30.9l-36.6-47.6-27.9 50.7-22.6-28.8-23 36.5c-4.9-5-10.4-12.6-11.9-19.2-1-4.2-5.3-6.8-9.6-5.5-3.8 1.2-5.9 5.4-5 9.3 3.4 14 16.5 28.4 24.4 33.1l6.3 3.8 20.1-31.9 23.3 29.8 27.8-50.5 33.5 43.6 6.1-6.1c12.7-12.7 19.6-29.8 19.6-48.2 0-15.9-5.8-31.5-15.6-43.6-18.3-21-44.8-33-72.8-33-5.6 0-9.3.1-14.7 1m226.7 148.1-8-24.3h-34.6l-8 24.3h-17.3l33.4-94.1h19l33.4 94.1zm-25.6-77.4-13.2 40.2h26.7l-13.1-40.2zm98.8 9.4-19.2 68.1h-15.8l-25.2-94.1h17.5l16.3 71.3h.5l18.9-71.3h14.9l18.9 71.3h.5l16.3-71.3h17.5l-25.2 94.1h-15.8l-19.2-68.1zm88.2 32.6v35.4h-16.8v-94h37.4c10.1 0 18.1 2.6 23.9 7.9 5.8 5.2 8.7 12.4 8.7 21.4 0 6.3-1.6 11.9-4.7 16.7s-7.5 8.2-13 10.2l20.5 37.9h-19.2l-18.5-35.4h-18.3zm0-45v32.1h19c5.3 0 9.5-1.4 12.5-4.2s4.4-6.8 4.4-11.9c0-5-1.5-8.9-4.6-11.7-3.1-2.9-7.3-4.3-12.6-4.3zm62.3 54.6h11.8c.6 5.1 3.1 9.2 7.5 12.3s10 4.6 16.7 4.6c6.3 0 11.6-1.5 15.7-4.5s6.2-6.8 6.2-11.4c0-4-1.4-7.2-4.3-9.8s-7.5-4.7-13.9-6.3l-12.1-3.1c-8.7-2.2-15-5.3-19-9.3s-6-9.2-6-15.5c0-7.8 3.1-14.2 9.3-19.2s14.2-7.4 24-7.4c9.3 0 17.1 2.5 23.2 7.5s9.3 11.5 9.6 19.3h-11.7c-.5-5-2.7-9-6.5-11.9s-8.8-4.4-14.9-4.4-11.1 1.4-14.9 4.3-5.8 6.6-5.8 11.2c0 3.6 1.4 6.5 4.2 8.8s7.4 4.2 13.8 5.9l9.8 2.6c9.7 2.4 16.7 5.7 21 9.7s6.4 9.4 6.4 16.2c0 8.6-3.2 15.4-9.5 20.4s-14.9 7.5-25.7 7.5c-10 0-18.2-2.5-24.5-7.5-6.3-5.1-9.8-11.7-10.4-20zm85-58.3h11.3v16.4h13.2v9.3h-13.2v40.3c0 3.1.7 5.4 2 6.8 1.3 1.5 3.5 2.2 6.4 2.2 1.8 0 3.4-.1 4.7-.3v9.5c-1.5.3-3.9.5-7.2.5-6.2 0-10.6-1.4-13.3-4.2s-4-7.4-4-14v-40.8h-10.1v-9.3h10.1v-16.4zm91.6 16.3v67.8h-10.8v-11h-.3c-4.2 8.1-11.4 12.2-21.5 12.2-7.3 0-13.1-2.2-17.2-6.7-4.2-4.5-6.2-10.6-6.2-18.3v-44h11.3v42c0 11.3 5.2 17 15.6 17 5.5 0 9.8-1.7 12.9-5.2 3.2-3.5 4.7-8.1 4.7-13.9v-39.9zm39.7 69c-8.7 0-15.7-3.2-21-9.6s-8-14.9-8-25.5 2.7-19 8-25.5c5.3-6.4 12.2-9.6 20.8-9.6 4.8 0 9.1 1.1 12.8 3.3 3.8 2.2 6.7 5.2 8.7 8.9h.3v-37.2h11.3v94.1h-10.8v-11.5h-.2c-2.2 4-5.2 7.1-9 9.3s-8.1 3.3-12.9 3.3zm2.2-60.2c-6 0-10.8 2.3-14.3 6.8s-5.3 10.6-5.3 18.3 1.8 13.8 5.3 18.3 8.3 6.8 14.3 6.8c5.9 0 10.6-2.3 14.1-6.9 3.6-4.6 5.3-10.7 5.3-18.2 0-7.6-1.8-13.6-5.4-18.2-3.5-4.6-8.2-6.9-14-6.9zm51 84.4c-2 0-3.6-.1-4.9-.4v-9.5c1 .2 2.5.3 4.4.3 3.2 0 5.7-.8 7.6-2.5s3.5-4.5 4.8-8.4l1.6-4.8-25-67.9h12.1l18.8 56.5h.2l18.8-56.5h11.9l-26.7 72.6c-2.9 7.9-6.1 13.3-9.4 16.2-3.3 3-8.1 4.4-14.2 4.4zm58.6-25.4v-67.8h10.7v11.1h.3c1.1-3.8 3.2-6.8 6.1-9s6.4-3.3 10.3-3.3c.9 0 2.4.2 4.6.5v11c-1.2-.4-3.2-.7-6.1-.7-4.4 0-7.9 1.5-10.6 4.4s-4 6.8-4 11.5v42.2h-11.3z"/>
  </symbol>

  <symbol id="facebook" viewBox="0 0 56.693 56.693">
    <path fill="currentColor" d="M40.43,21.739h-7.645v-5.014c0-1.883,1.248-2.322,2.127-2.322c0.877,0,5.395,0,5.395,0V6.125l-7.43-0.029  c-8.248,0-10.125,6.174-10.125,10.125v5.518h-4.77v8.53h4.77c0,10.947,0,24.137,0,24.137h10.033c0,0,0-13.32,0-24.137h6.77  L40.43,21.739z"/>
  </symbol>

  <symbol id="twitter" viewBox="0 0 56.693 56.693">
    <path fill="currentColor" d="M52.837,15.065c-1.811,0.805-3.76,1.348-5.805,1.591c2.088-1.25,3.689-3.23,4.444-5.592c-1.953,1.159-4.115,2-6.418,2.454  c-1.843-1.964-4.47-3.192-7.377-3.192c-5.581,0-10.106,4.525-10.106,10.107c0,0.791,0.089,1.562,0.262,2.303  c-8.4-0.422-15.848-4.445-20.833-10.56c-0.87,1.492-1.368,3.228-1.368,5.082c0,3.506,1.784,6.6,4.496,8.412  c-1.656-0.053-3.215-0.508-4.578-1.265c-0.001,0.042-0.001,0.085-0.001,0.128c0,4.896,3.484,8.98,8.108,9.91  c-0.848,0.23-1.741,0.354-2.663,0.354c-0.652,0-1.285-0.063-1.902-0.182c1.287,4.015,5.019,6.938,9.441,7.019  c-3.459,2.711-7.816,4.327-12.552,4.327c-0.815,0-1.62-0.048-2.411-0.142c4.474,2.869,9.786,4.541,15.493,4.541  c18.591,0,28.756-15.4,28.756-28.756c0-0.438-0.009-0.875-0.028-1.309C49.769,18.873,51.483,17.092,52.837,15.065z"/>
  </symbol>

  <symbol id="chrome" viewBox="0 0 32 32">
    <title>Chrome logo</title>
    <path d="m16 10c3.3 0 6 2.7 6 6s-2.7 6-6 6-6-2.7-6-6 2.7-6 6-6zm0 14c-4 0-7.4-3-7.9-6.9l-5.5-9.6-.7.9c-.1.3-.3.6-.4.8l-.3.7c-.1.2-.2.5-.3.7-.1.3-.2.5-.3.8l-.2.6c-.1.3-.1.6-.2.9l-.1.6c0 .3-.1.6-.1.9l0 .8v.8s0 .5 0 .8l.1.7c0 .3.1.6.1.9l.1.6c.1.3.1.6.2.9l.2.6c.1.3.2.6.3.8s.2.5.3.7.2.5.3.7c.1.3.3.6.4.9l.1.4.1.1.6.9.3.5c.2.3.4.5.6.8l.4.5c.2.2.4.4.6.6s.4.4.6.6l.5.4c.2.2.5.4.8.6l.4.2c.3.2.6.4.9.6l.1.1.4.2c.3.2.6.3.9.4h.1l.4.2c1.1.5 2.2.8 3.4 1l4.6-7.9c-.7.1-1.2.2-1.8.2zm15.9-9.1v-.3c-.1-1.3-.7-3.3-1.1-4.6h-9.4c1.6 1.5 2.6 3.6 2.6 6 0 2.5-1.2 4.8-3 6.3l-5.7 9.7c2 0 4.6-.4 6.6-1.1h.1.1c.7-.3 1.3-.6 1.9-.9s1.1-.7 1.6-1.1c.5-.4.9-.8 1.4-1.2l.1-.1.2-.2c1-1 1.8-2 2.5-3.2l.1-.1.1-.3c.2-.4.4-.8.6-1.2l.2-.6c.2-.4.3-.8.4-1.2l.2-.5c.2-.6.3-1.1.4-1.7v-.3c.1-.5.1-1 .1-1.5v-.4c.1-.5.1-1 0-1.5zm-2.1-6.9c-.3-.6-.7-1.1-1.1-1.6l-.1-.2c-.4-.5-.7-.9-1.1-1.3l-.3-.3c-.4-.4-.9-.8-1.4-1.2l-.1-.1c-.5-.4-1.1-.8-1.6-1.1l-.1-.1-.4-.2c-.3-.1-.5-.3-.8-.4-.2-.1-.5-.2-.7-.3l-.7-.2c-.3-.1-.6-.2-.9-.3l-.5-.2c-.3-.1-.7-.2-1-.2l-.5-.1c-.3-.1-.7-.1-1-.1l-.5-.1c-.3 0-.6 0-.8 0h-.7-.5c-1.2.1-2.4.3-3.6.6l-.2.1c-.3.1-.6.2-.9.3l-.6.3c-.3.1-.5.2-.8.3-.2.2-.4.3-.7.4l-.2.1-.4.3c-.2.1-.5.3-.7.4-.2.2-.4.3-.6.5l-.6.4c-.2.2-.4.4-.6.6l-.4.4c-.3.2-.5.5-.7.7l-.2.2 4.6 7.9c1-3.2 4-5.5 7.6-5.5z" fill="currentColor"/>
  </symbol>

  <symbol id="technologies" viewBox="0 0 16 16">
    <title>Technologies</title>
    <path d="m4.5 12-4-4 4-4m7 8 4-4-4-4m-1.7-1.5-3.5 11" fill="none" stroke-miterlimit="10"/>
  </symbol>

  <symbol id="pagespeed" viewBox="0 0 16 16">
    <title>PageSpeed</title>
    <path d="m3.5 12.5h-3v-1.5c0-4.1 3.4-7.5 7.5-7.5s7.5 3.4 7.5 7.5v1.5h-3m-11.4-4.3 1.9.7m5-5.4v2m5.1 3.3 1.9-.7m-7 4.9 3-6.3" fill="none" stroke-miterlimit="10"/>
  </symbol>

  <symbol id="html5" viewBox="0 0 16 16">
    <title>HTML5</title>
    <path d="m1 .5h14l-1 12.3-6 2.8-6-2.8zm3.8 8.5v1.2l3.1 1.2 3.5-1.2v-3.3l-6.6.1v-3.5h7" fill="none" stroke-miterlimit="10"/>
  </symbol>

  <symbol id="mobile" viewBox="0 0 16 16">
    <title>Small mobile device</title>
    <path d="m7 13.5h2m2.5 2h-7c-.6 0-1-.4-1-1v-13c0-.6.4-1 1-1h7c .6 0 1 .4 1 1v13c0 .6-.4 1-1 1zm-6-14.5v.2c0 .6.4 1 1 1h3c .6 0 1-.4 1-1v-.2" fill="none" stroke-linecap="round" stroke-miterlimit="10"/>
  </symbol>

  <symbol id="mixed" viewBox="0 0 16 16">
    <title>Mixed content</title>
    <path d="m12.3 4h-3.2c-1 0-1.8.9-1.8 2v1c0 1.1-.8 1-1.8 1h-5.5m12.6-1.5 2.4-2.5-2.4-2.5m-.3 10.5h-3.2c-1 0-1.8-.9-1.8-2v-1c0-1.1-.8-1-1.8-1h-5.5m12.6 6.5 2.4-2.5-2.4-2.5" fill="none" stroke-miterlimit="10"/>
  </symbol>

  <symbol id="accessibility" viewBox="0 0 16 16">
    <title>Accessibility</title>
    <path d="m9.5 15.5h-3c-.6 0-1-.4-1-1v-6h-4v-2h13v2h-4v6c0 .6-.4 1-1 1zm-1.5-14.7c-1 0-1.8.8-1.8 1.8s.8 1.7 1.8 1.7 1.8-.8 1.8-1.8-.8-1.7-1.8-1.7zm0 10.7v4" fill="none" stroke-miterlimit="10"/>
  </symbol>

  <symbol id="refresh" viewBox="0 0 16 16">
    <path d="m13.9 11.7c-.6 1.2-1.7 2.2-3 2.9-3.3 1.5-7.2.1-8.8-3.2s-.1-7.2 3.2-8.8 7.2-.1 8.8 3.2m.4-5v5.2h-5.5m5.5-5.2" fill="none" stroke="currentColor" stroke-miterlimit="10"/>
  </symbol>

  <symbol id="heart" viewBox="-0.7 -11.5 141.7 141.7">
    <title>Heart</title>
    <path d="M140.314,37.654C140.314,16.858,123.402,0,102.537,0c-13.744,0-25.77,7.317-32.379,18.255C63.549,7.317,51.521,0,37.777,0   C16.912,0,0,16.858,0,37.654c0,10.821,4.588,20.57,11.922,27.438h-0.01l54.084,51.584c0.992,1.188,2.48,1.945,4.148,1.945   c1.545,0,2.936-0.653,3.92-1.696l54.346-51.833h-0.016C135.729,58.225,140.314,48.476,140.314,37.654" />
  </symbol>

  <symbol id="github" viewBox="0 0 32 32">
    <path fill="currentColor" d="m16 .4c-8.8 0-16 7.2-16 16 0 7.1 4.6 13.1 10.9 15.2.8.1 1.1-.3 1.1-.8 0-.4 0-1.6 0-3-4.4 1-5.4-1.9-5.4-1.9-.7-1.8-1.8-2.3-1.8-2.3-1.5-1 .1-1 .1-1 1.6.1 2.5 1.6 2.5 1.6 1.4 2.4 3.7 1.7 4.7 1.3.1-1 .6-1.7 1-2.1-3.6-.4-7.3-1.8-7.3-7.9 0-1.7.6-3.2 1.6-4.3-.2-.4-.7-2 .2-4.2 0 0 1.3-.4 4.4 1.6 1.3-.4 2.6-.5 4-.5s2.7.2 4 .5c3.1-2 4.4-1.6 4.4-1.6.9 2.2.3 3.8.2 4.2 1 1.1 1.6 2.5 1.6 4.3 0 6.1-3.7 7.5-7.3 7.9.6.5 1.1 1.5 1.1 3v4.4c0 .4.3.9 1.1.8 6.3-2.1 10.9-8.1 10.9-15.2 0-8.8-7.2-16-16-16z"> </path>
  </symbol>
</svg>
