<svg xmlns="http://www.w3.org/2000/svg" width="0" height="0" display="none">
  <symbol id="logo" viewBox="0 0 930.76 179.6">
    <title>Wattspeed logo</title>
    <path d="M148 0H64L0 95h125.5L158 47h-41.663L148 0z"/><path opacity=".8" d="M125.5 95.001l-73.318 16L67.883 179.6 125.5 95.001z"/><path d="M180 47h19.146l8.329 34.48 6.382 28.64h.623l7.472-28.64L231.368 47h18.057l9.886 34.48 7.627 28.64h.623l6.382-28.64L281.959 47h18.523l-22.181 83.599H256.82L246.391 93.8l-6.071-22.72h-.467l-5.915 22.72-10.274 36.799h-21.17L180 47zm193.355 83.599c-4.359 0-7.835-1.28-10.43-3.84-2.49-2.666-4.047-6.186-4.669-10.56h-.934c-1.349 5.44-4.099 9.547-8.25 12.32-4.151 2.667-9.288 4-15.411 4-8.302 0-14.684-2.24-19.146-6.72-4.463-4.48-6.694-10.453-6.694-17.919 0-8.64 3.01-15.04 9.029-19.2 6.018-4.267 14.58-6.4 25.684-6.4h13.854V76.2c0-4.694-1.194-8.32-3.581-10.88-2.386-2.56-6.226-3.84-11.519-3.84-4.669 0-8.457 1.066-11.363 3.2a29.729 29.729 0 00-7.16 7.36l-11.831-10.88c3.01-4.8 7.005-8.64 11.986-11.52 4.982-2.987 11.571-4.48 19.769-4.48 11.001 0 19.354 2.56 25.062 7.68 5.708 5.12 8.561 12.48 8.561 22.08v39.359h8.095v16.32h-11.052zm-33.001-12.96c4.463 0 8.251-1.013 11.364-3.04 3.113-2.026 4.67-5.013 4.67-8.959V94.6h-12.765c-10.377 0-15.566 3.413-15.566 10.24v2.72c0 3.413 1.038 5.973 3.113 7.679 2.18 1.6 5.241 2.4 9.184 2.4zm84.943 12.96c-6.849 0-12.089-1.813-15.722-5.44-3.528-3.733-5.292-9.013-5.292-15.839V63.4h-11.986V47.08h6.226c3.01 0 5.033-.693 6.071-2.08 1.142-1.493 1.712-3.68 1.712-6.56V24.2h17.902v22.88h16.656V63.4h-16.656v50.879h15.41v16.32h-14.321zm57.31 0c-6.85 0-12.09-1.813-15.722-5.44-3.529-3.733-5.293-9.013-5.293-15.839V63.4h-11.986V47.08h6.227c3.009 0 5.033-.693 6.071-2.08 1.141-1.493 1.712-3.68 1.712-6.56V24.2h17.901v22.88h16.656V63.4h-16.656v50.879h15.41v16.32h-14.32z"/><path opacity=".8" d="M542.403 132.519c-7.783 0-14.321-1.333-19.613-4-5.293-2.773-9.962-6.56-14.01-11.359L520.922 105c3.009 3.52 6.278 6.293 9.807 8.32 3.632 2.026 7.783 3.04 12.453 3.04 4.773 0 8.198-.854 10.273-2.56 2.18-1.707 3.269-4.054 3.269-7.04 0-2.454-.778-4.374-2.335-5.76-1.452-1.494-3.995-2.507-7.627-3.04l-8.095-1.12c-8.82-1.174-15.566-3.734-20.236-7.68-4.566-4.054-6.849-9.92-6.849-17.6 0-4.053.727-7.68 2.18-10.88 1.452-3.307 3.528-6.08 6.226-8.32 2.698-2.347 5.915-4.107 9.651-5.28 3.84-1.28 8.095-1.92 12.764-1.92 3.944 0 7.42.32 10.43.96 3.113.533 5.915 1.387 8.405 2.56a28.223 28.223 0 016.85 4.16 57.219 57.219 0 016.07 5.44l-11.674 12c-2.387-2.56-5.241-4.693-8.562-6.4-3.32-1.707-6.953-2.56-10.896-2.56-4.359 0-7.524.8-9.495 2.4-1.868 1.6-2.802 3.68-2.802 6.24 0 2.773.778 4.906 2.335 6.4 1.66 1.386 4.41 2.4 8.25 3.04l8.25 1.12c17.538 2.56 26.307 10.773 26.307 24.64 0 4.053-.83 7.786-2.491 11.2-1.557 3.306-3.788 6.186-6.693 8.639-2.906 2.347-6.434 4.214-10.585 5.6-4.048 1.28-8.614 1.92-13.699 1.92zm51.061-85.439h19.925v13.76h.623c1.452-4.8 4.202-8.587 8.25-11.36 4.047-2.88 8.769-4.32 14.165-4.32 10.377 0 18.263 3.787 23.663 11.36 5.5 7.467 8.25 18.186 8.25 32.16 0 14.08-2.75 24.906-8.25 32.479-5.4 7.574-13.286 11.36-23.663 11.36-5.396 0-10.118-1.44-14.165-4.32-3.944-2.88-6.694-6.72-8.25-11.519h-.623v45.919h-19.925V47.08zm36.581 68.48c5.188 0 9.391-1.76 12.608-5.28 3.217-3.52 4.826-8.267 4.826-14.24v-14.4c0-5.974-1.609-10.72-4.826-14.24-3.217-3.627-7.42-5.44-12.608-5.44-4.774 0-8.769 1.227-11.986 3.68-3.113 2.453-4.67 5.706-4.67 9.76v26.56c0 4.373 1.557 7.733 4.67 10.08 3.217 2.346 7.212 3.52 11.986 3.52zm89.605 16.959c-6.02 0-11.42-1.013-16.19-3.04-4.67-2.133-8.67-5.066-11.99-8.8-3.22-3.839-5.71-8.426-7.47-13.759-1.77-5.44-2.65-11.52-2.65-18.24 0-6.614.83-12.587 2.49-17.92 1.77-5.333 4.26-9.867 7.47-13.6 3.22-3.84 7.17-6.773 11.84-8.8 4.66-2.133 9.96-3.2 15.87-3.2 6.33 0 11.83 1.12 16.5 3.36 4.67 2.24 8.51 5.28 11.52 9.12 3.01 3.84 5.24 8.32 6.7 13.44 1.55 5.013 2.33 10.4 2.33 16.16v6.72h-54.01v2.08c0 6.08 1.66 10.986 4.98 14.72 3.32 3.626 8.25 5.44 14.78 5.44 4.99 0 9.03-1.067 12.15-3.2 3.21-2.134 6.07-4.854 8.56-8.16l10.74 12.32c-3.32 4.799-7.89 8.586-13.7 11.359-5.71 2.667-12.35 4-19.92 4zm-.32-71.999c-5.29 0-9.49 1.813-12.6 5.44-3.12 3.626-4.67 8.32-4.67 14.08v1.28h33.31v-1.44c0-5.76-1.4-10.4-4.21-13.92-2.69-3.627-6.64-5.44-11.83-5.44zm87.11 71.999c-6.01 0-11.41-1.013-16.18-3.04-4.67-2.133-8.67-5.066-11.99-8.8-3.22-3.839-5.71-8.426-7.47-13.759-1.77-5.44-2.65-11.52-2.65-18.24 0-6.614.83-12.587 2.49-17.92 1.77-5.333 4.26-9.867 7.47-13.6 3.22-3.84 7.16-6.773 11.83-8.8 4.67-2.133 9.97-3.2 15.88-3.2 6.33 0 11.83 1.12 16.5 3.36 4.67 2.24 8.51 5.28 11.52 9.12 3.01 3.84 5.24 8.32 6.69 13.44 1.56 5.013 2.34 10.4 2.34 16.16v6.72h-54.01v2.08c0 6.08 1.66 10.986 4.98 14.72 3.32 3.626 8.25 5.44 14.78 5.44 4.99 0 9.03-1.067 12.15-3.2 3.21-2.134 6.07-4.854 8.56-8.16l10.74 12.32c-3.32 4.799-7.89 8.586-13.7 11.359-5.71 2.667-12.35 4-19.93 4zm-.31-71.999c-5.29 0-9.49 1.813-12.6 5.44-3.12 3.626-4.67 8.32-4.67 14.08v1.28h33.31v-1.44c0-5.76-1.4-10.4-4.21-13.92-2.69-3.627-6.64-5.44-11.83-5.44zm104.7 56.16h-.77c-1.46 4.799-4.21 8.639-8.25 11.519-4.05 2.88-8.77 4.32-14.17 4.32-10.27 0-18.16-3.786-23.66-11.36-5.4-7.573-8.09-18.399-8.09-32.479 0-13.974 2.69-24.693 8.09-32.16 5.5-7.573 13.39-11.36 23.66-11.36 5.4 0 10.12 1.44 14.17 4.32 4.04 2.773 6.79 6.56 8.25 11.36h.77V12.2h19.93v118.399h-19.93V116.68zm-16.81-1.12c4.78 0 8.77-1.174 11.99-3.52 3.22-2.347 4.82-5.707 4.82-10.08V75.4c0-4.054-1.6-7.307-4.82-9.76-3.22-2.453-7.21-3.68-11.99-3.68-5.19 0-9.39 1.813-12.61 5.44-3.11 3.52-4.67 8.266-4.67 14.24v14.4c0 5.973 1.56 10.72 4.67 14.24 3.22 3.52 7.42 5.28 12.61 5.28z"/>
  </symbol>

  <symbol id="facebook" viewBox="0 0 56.693 56.693">
    <path fill="currentColor" d="M40.43,21.739h-7.645v-5.014c0-1.883,1.248-2.322,2.127-2.322c0.877,0,5.395,0,5.395,0V6.125l-7.43-0.029  c-8.248,0-10.125,6.174-10.125,10.125v5.518h-4.77v8.53h4.77c0,10.947,0,24.137,0,24.137h10.033c0,0,0-13.32,0-24.137h6.77  L40.43,21.739z"/>
  </symbol>

  <symbol id="twitter" viewBox="0 0 56.693 56.693">
    <path fill="currentColor" d="M52.837,15.065c-1.811,0.805-3.76,1.348-5.805,1.591c2.088-1.25,3.689-3.23,4.444-5.592c-1.953,1.159-4.115,2-6.418,2.454  c-1.843-1.964-4.47-3.192-7.377-3.192c-5.581,0-10.106,4.525-10.106,10.107c0,0.791,0.089,1.562,0.262,2.303  c-8.4-0.422-15.848-4.445-20.833-10.56c-0.87,1.492-1.368,3.228-1.368,5.082c0,3.506,1.784,6.6,4.496,8.412  c-1.656-0.053-3.215-0.508-4.578-1.265c-0.001,0.042-0.001,0.085-0.001,0.128c0,4.896,3.484,8.98,8.108,9.91  c-0.848,0.23-1.741,0.354-2.663,0.354c-0.652,0-1.285-0.063-1.902-0.182c1.287,4.015,5.019,6.938,9.441,7.019  c-3.459,2.711-7.816,4.327-12.552,4.327c-0.815,0-1.62-0.048-2.411-0.142c4.474,2.869,9.786,4.541,15.493,4.541  c18.591,0,28.756-15.4,28.756-28.756c0-0.438-0.009-0.875-0.028-1.309C49.769,18.873,51.483,17.092,52.837,15.065z"/>
  </symbol>

  <symbol id="chrome" viewBox="0 0 32 32">
    <title>Chrome logo</title>
    <path d="m16 10c3.3 0 6 2.7 6 6s-2.7 6-6 6-6-2.7-6-6 2.7-6 6-6zm0 14c-4 0-7.4-3-7.9-6.9l-5.5-9.6-.7.9c-.1.3-.3.6-.4.8l-.3.7c-.1.2-.2.5-.3.7-.1.3-.2.5-.3.8l-.2.6c-.1.3-.1.6-.2.9l-.1.6c0 .3-.1.6-.1.9l0 .8v.8s0 .5 0 .8l.1.7c0 .3.1.6.1.9l.1.6c.1.3.1.6.2.9l.2.6c.1.3.2.6.3.8s.2.5.3.7.2.5.3.7c.1.3.3.6.4.9l.1.4.1.1.6.9.3.5c.2.3.4.5.6.8l.4.5c.2.2.4.4.6.6s.4.4.6.6l.5.4c.2.2.5.4.8.6l.4.2c.3.2.6.4.9.6l.1.1.4.2c.3.2.6.3.9.4h.1l.4.2c1.1.5 2.2.8 3.4 1l4.6-7.9c-.7.1-1.2.2-1.8.2zm15.9-9.1v-.3c-.1-1.3-.7-3.3-1.1-4.6h-9.4c1.6 1.5 2.6 3.6 2.6 6 0 2.5-1.2 4.8-3 6.3l-5.7 9.7c2 0 4.6-.4 6.6-1.1h.1.1c.7-.3 1.3-.6 1.9-.9s1.1-.7 1.6-1.1c.5-.4.9-.8 1.4-1.2l.1-.1.2-.2c1-1 1.8-2 2.5-3.2l.1-.1.1-.3c.2-.4.4-.8.6-1.2l.2-.6c.2-.4.3-.8.4-1.2l.2-.5c.2-.6.3-1.1.4-1.7v-.3c.1-.5.1-1 .1-1.5v-.4c.1-.5.1-1 0-1.5zm-2.1-6.9c-.3-.6-.7-1.1-1.1-1.6l-.1-.2c-.4-.5-.7-.9-1.1-1.3l-.3-.3c-.4-.4-.9-.8-1.4-1.2l-.1-.1c-.5-.4-1.1-.8-1.6-1.1l-.1-.1-.4-.2c-.3-.1-.5-.3-.8-.4-.2-.1-.5-.2-.7-.3l-.7-.2c-.3-.1-.6-.2-.9-.3l-.5-.2c-.3-.1-.7-.2-1-.2l-.5-.1c-.3-.1-.7-.1-1-.1l-.5-.1c-.3 0-.6 0-.8 0h-.7-.5c-1.2.1-2.4.3-3.6.6l-.2.1c-.3.1-.6.2-.9.3l-.6.3c-.3.1-.5.2-.8.3-.2.2-.4.3-.7.4l-.2.1-.4.3c-.2.1-.5.3-.7.4-.2.2-.4.3-.6.5l-.6.4c-.2.2-.4.4-.6.6l-.4.4c-.3.2-.5.5-.7.7l-.2.2 4.6 7.9c1-3.2 4-5.5 7.6-5.5z" fill="currentColor"/>
  </symbol>

  <symbol id="technologies" viewBox="0 0 16 16">
    <title>Technologies</title>
    <path d="m4.5 12-4-4 4-4m7 8 4-4-4-4m-1.7-1.5-3.5 11" fill="none" stroke-miterlimit="10"/>
  </symbol>

  <symbol id="pagespeed" viewBox="0 0 16 16">
    <title>PageSpeed</title>
    <path d="m3.5 12.5h-3v-1.5c0-4.1 3.4-7.5 7.5-7.5s7.5 3.4 7.5 7.5v1.5h-3m-11.4-4.3 1.9.7m5-5.4v2m5.1 3.3 1.9-.7m-7 4.9 3-6.3" fill="none" stroke-miterlimit="10"/>
  </symbol>

  <symbol id="html5" viewBox="0 0 16 16">
    <title>HTML5</title>
    <path d="m1 .5h14l-1 12.3-6 2.8-6-2.8zm3.8 8.5v1.2l3.1 1.2 3.5-1.2v-3.3l-6.6.1v-3.5h7" fill="none" stroke-miterlimit="10"/>
  </symbol>

  <symbol id="mobile" viewBox="0 0 16 16">
    <title>Small mobile device</title>
    <path d="m7 13.5h2m2.5 2h-7c-.6 0-1-.4-1-1v-13c0-.6.4-1 1-1h7c .6 0 1 .4 1 1v13c0 .6-.4 1-1 1zm-6-14.5v.2c0 .6.4 1 1 1h3c .6 0 1-.4 1-1v-.2" fill="none" stroke-linecap="round" stroke-miterlimit="10"/>
  </symbol>

  <symbol id="mixed" viewBox="0 0 16 16">
    <title>Mixed content</title>
    <path d="m12.3 4h-3.2c-1 0-1.8.9-1.8 2v1c0 1.1-.8 1-1.8 1h-5.5m12.6-1.5 2.4-2.5-2.4-2.5m-.3 10.5h-3.2c-1 0-1.8-.9-1.8-2v-1c0-1.1-.8-1-1.8-1h-5.5m12.6 6.5 2.4-2.5-2.4-2.5" fill="none" stroke-miterlimit="10"/>
  </symbol>

  <symbol id="accessibility" viewBox="0 0 16 16">
    <title>Accessibility</title>
    <path d="m9.5 15.5h-3c-.6 0-1-.4-1-1v-6h-4v-2h13v2h-4v6c0 .6-.4 1-1 1zm-1.5-14.7c-1 0-1.8.8-1.8 1.8s.8 1.7 1.8 1.7 1.8-.8 1.8-1.8-.8-1.7-1.8-1.7zm0 10.7v4" fill="none" stroke-miterlimit="10"/>
  </symbol>

  <symbol id="refresh" viewBox="0 0 16 16">
    <path d="m13.9 11.7c-.6 1.2-1.7 2.2-3 2.9-3.3 1.5-7.2.1-8.8-3.2s-.1-7.2 3.2-8.8 7.2-.1 8.8 3.2m.4-5v5.2h-5.5m5.5-5.2" fill="none" stroke="currentColor" stroke-miterlimit="10"/>
  </symbol>

  <symbol id="heart" viewBox="-0.7 -11.5 141.7 141.7">
    <title>Heart</title>
    <path d="M140.314,37.654C140.314,16.858,123.402,0,102.537,0c-13.744,0-25.77,7.317-32.379,18.255C63.549,7.317,51.521,0,37.777,0   C16.912,0,0,16.858,0,37.654c0,10.821,4.588,20.57,11.922,27.438h-0.01l54.084,51.584c0.992,1.188,2.48,1.945,4.148,1.945   c1.545,0,2.936-0.653,3.92-1.696l54.346-51.833h-0.016C135.729,58.225,140.314,48.476,140.314,37.654" />
  </symbol>

  <symbol id="github" viewBox="0 0 32 32">
    <path fill="currentColor" d="m16 .4c-8.8 0-16 7.2-16 16 0 7.1 4.6 13.1 10.9 15.2.8.1 1.1-.3 1.1-.8 0-.4 0-1.6 0-3-4.4 1-5.4-1.9-5.4-1.9-.7-1.8-1.8-2.3-1.8-2.3-1.5-1 .1-1 .1-1 1.6.1 2.5 1.6 2.5 1.6 1.4 2.4 3.7 1.7 4.7 1.3.1-1 .6-1.7 1-2.1-3.6-.4-7.3-1.8-7.3-7.9 0-1.7.6-3.2 1.6-4.3-.2-.4-.7-2 .2-4.2 0 0 1.3-.4 4.4 1.6 1.3-.4 2.6-.5 4-.5s2.7.2 4 .5c3.1-2 4.4-1.6 4.4-1.6.9 2.2.3 3.8.2 4.2 1 1.1 1.6 2.5 1.6 4.3 0 6.1-3.7 7.5-7.3 7.9.6.5 1.1 1.5 1.1 3v4.4c0 .4.3.9 1.1.8 6.3-2.1 10.9-8.1 10.9-15.2 0-8.8-7.2-16-16-16z"> </path>
  </symbol>

  <symbol id="shield" viewBox="0 0 16 16">
    <desc>Shield icon</desc>
    <path d="M8.196,14.431C8.196,14.431 5.426,12.499 4.661,11.304C3.718,9.831 2.541,2.945 2.541,2.945L8.196,0.702M8.196,14.431C8.196,14.431 10.966,12.499 11.731,11.304C12.674,9.831 13.851,2.945 13.851,2.945L8.196,0.702" stroke-width="1" vector-effect="non-scaling-stroke"/>
  </symbol>
</svg>
